<svg height="32" viewBox="0 0 108 32" width="108" xmlns="http://www.w3.org/2000/svg"><g fill="#333"><path d="m104.157 0h-100.37389c-2.08533 0-3.78311 1.696-3.78311 3.78044v24.43286c0 2.0845 1.69778 3.7867 3.78311 3.7867h100.37389c2.085 0 3.843-1.7022 3.843-3.7867v-24.43286c0-2.08444-1.757-3.78044-3.843-3.78044zm.001 31.2782h-100.37489c-1.69511 0-3.07111-1.3715-3.07111-3.064v-24.43376c0-1.69244 1.376-3.067551 3.07111-3.067551h100.37389c1.697 0 3.068 1.376001 3.068 3.067551l.001 24.43466c0 1.6925-1.372 3.0631-3.068 3.0631z"/><path d="m24.1024 15.8274c-.0232-2.5787 2.1111-3.8329 2.2088-3.8916-1.2088-1.7626-3.0826-2.00354-3.7404-2.02221-1.5733-.16533-3.0996.94131-3.9013.94131-.8178 0-2.0525-.92531-3.3823-.89864-1.712.02667-3.3137 1.01774-4.192 2.55644-1.8124 3.1387-.4604 7.7502 1.2765 10.2871.8684 1.2427 1.8844 2.6293 3.2124 2.5805 1.3005-.0534 1.7858-.8285 3.3547-.8285 1.5547 0 2.0107.8285 3.3653.7974 1.3956-.0223 2.2738-1.248 3.112-2.5014 1.0036-1.424 1.4071-2.8266 1.4231-2.8986-.0337-.0098-2.7102-1.0321-2.7368-4.1218z"/><path d="m21.5424 8.24426c.6996-.87467 1.1778-2.064 1.0445-3.27112-1.0116.04445-2.2774.69956-3.0063 1.55556-.6444.75378-1.2204 1.98844-1.072 3.15022 1.1369.08445 2.304-.57333 3.0338-1.43466z"/><path d="m42.9163 25.2037h-1.8169l-.9955-3.1271h-3.4596l-.9484 3.1271h-1.7689l3.4276-10.6462h2.1164zm-3.112-4.4391-.9004-2.7805c-.0951-.2835-.2738-.9529-.5369-2.0053h-.032c-.1049.4524-.2738 1.1218-.5058 2.0053l-.8835 2.7805z"/><path d="m51.7296 21.2703c0 1.3058-.3529 2.3378-1.0587 3.0951-.632.6747-1.4168 1.0116-2.3537 1.0116-1.0116 0-1.7378-.3636-2.1796-1.0898h-.032v4.0436h-1.7058v-8.2774c0-.8204-.0213-1.6631-.0631-2.5271h1.5005l.0951 1.2169h.032c.5689-.9164 1.432-1.3742 2.5902-1.3742.9058 0 1.6613.3573 2.2667 1.0738.6062.7164.9084 1.6586.9084 2.8275zm-1.7378.0622c0-.7475-.168-1.3635-.5057-1.848-.3689-.5057-.864-.7582-1.4845-.7582-.4204 0-.8035.1405-1.1449.4187-.3422.28-.5662.6453-.6711 1.0986-.0524.2116-.0791.384-.0791.52v1.28c0 .5583.1716 1.0294.5138 1.4143s.7875.5769 1.3342.5769c.6427 0 1.1422-.248 1.5004-.7423.3574-.496.5369-1.1484.5369-1.96z"/><path d="m60.559 21.2703c0 1.3058-.3529 2.3378-1.0595 3.0951-.6311.6747-1.416 1.0116-2.3529 1.0116-1.0116 0-1.7378-.3636-2.1796-1.0898h-.032v4.0436h-1.7057v-8.2774c0-.8204-.0214-1.6631-.0631-2.5271h1.5004l.0951 1.2169h.032c.568-.9164 1.4311-1.3742 2.5902-1.3742.9049 0 1.6605.3573 2.2676 1.0738.6044.7164.9075 1.6586.9075 2.8275zm-1.7377.0622c0-.7475-.1689-1.3635-.5067-1.848-.3689-.5057-.8622-.7582-1.4845-.7582-.4213 0-.8035.1405-1.1457.4187-.3422.28-.5654.6453-.6702 1.0986-.0525.2116-.0792.384-.0792.52v1.28c0 .5583.1716 1.0294.512 1.4143.3423.384.7876.5769 1.336.5769.6427 0 1.1423-.248 1.5005-.7423.3591-.496.5378-1.1484.5378-1.96z"/><path d="m70.431 22.2179c0 .9057-.3147 1.6426-.9458 2.2115-.6933.6213-1.6595.9325-2.9004.9325-1.1458 0-2.064-.2205-2.7591-.6632l.3955-1.4213c.7485.4525 1.5707.68 2.4658.68.6427 0 1.1422-.1458 1.5013-.4355.3574-.2898.536-.6783.536-1.1636 0-.432-.1475-.7964-.4426-1.0916-.2934-.2951-.784-.5697-1.4685-.8231-1.864-.6951-2.7955-1.7137-2.7955-3.0524 0-.8756.3262-1.5929.9795-2.1511.6516-.5591 1.52-.8382 2.6062-.8382.9689 0 1.7734.1688 2.416.5057l-.4266 1.3903c-.6-.3263-1.2783-.4898-2.0374-.4898-.6 0-1.0684.1484-1.4044.4426-.2836.2632-.4267.584-.4267.9636 0 .4204.1627.7689.4889 1.0427.2845.2524.8.5262 1.5485.8213.9155.3689 1.5884.8 2.0213 1.2942.4329.4925.648 1.1094.648 1.8454z"/><path d="m76.0702 18.8063h-1.88v3.7271c0 .9476.3316 1.4214.9956 1.4214.3048 0 .5573-.0267.7573-.0791l.0471 1.2951c-.336.1253-.7787.1884-1.3262.1884-.6738 0-1.2-.2053-1.5796-.616-.3786-.4115-.5689-1.1004-.5689-2.0693v-3.8693h-1.12v-1.28h1.12v-1.4054l1.6756-.5058v1.9112h1.88z"/><path d="m84.5529 21.3014c0 1.1805-.3378 2.1485-1.0116 2.9067-.7066.7795-1.6435 1.1689-2.8124 1.1689-1.1262 0-2.0231-.3734-2.6916-1.1209-.6684-.7476-1.0035-1.6907-1.0035-2.8276 0-1.1893.344-2.1635 1.0346-2.9217.6889-.7583 1.6187-1.1378 2.7876-1.1378 1.1262 0 2.0329.3733 2.7164 1.1218.6543.7262.9805 1.6631.9805 2.8106zm-1.7698.0551c0-.7084-.1511-1.3155-.4578-1.8213-.3573-.6124-.8684-.9182-1.5315-.9182-.6854 0-1.2062.3066-1.5645.9182-.3066.5076-.4578 1.1244-.4578 1.8533 0 .7076.1512 1.3156.4578 1.8205.3689.6124.8845.9182 1.5485.9182.6515 0 1.1626-.312 1.5315-.9342.3156-.5156.4738-1.1289.4738-1.8365z"/><path d="m90.0968 19.0268c-.1688-.0311-.3484-.0471-.5377-.0471-.6 0-1.064.2267-1.3903.68-.2844.4-.4266.9058-.4266 1.5155v4.0276h-1.7049l.016-5.2596c0-.8844-.0214-1.6906-.064-2.4168h1.4853l.0622 1.4684h.0471c.1796-.5049.464-.9111.8525-1.216.3795-.2747.7902-.4116 1.2329-.4116.1573 0 .3004.0116.4267.0312.0008.0017.0008 1.6284.0008 1.6284z"/><path d="m97.7242 21.0019c0 .3058-.0195.5636-.0622.7733h-5.1164c.0195.7583.2675 1.3387.7422 1.7387.4311.3573.9884.5369 1.6738.5369.7573 0 1.4489-.1209 2.0702-.3636l.2676 1.184c-.7263.3165-1.584.4747-2.5734.4747-1.1902 0-2.1244-.3502-2.8044-1.0507-.6782-.7004-1.0187-1.64-1.0187-2.8195 0-1.1574.3156-2.1218.9485-2.8907.6622-.8204 1.5573-1.2311 2.6844-1.2311 1.1067 0 1.944.4107 2.5129 1.2311.4498.6525.6755 1.4587.6755 2.4169zm-1.6257-.4427c.0115-.5057-.1005-.9422-.3316-1.3111-.2951-.4746-.7484-.7111-1.3591-.7111-.5573 0-1.0116.2311-1.3573.6951-.2845.3689-.4525.8116-.5049 1.3262z"/><path d="m38.7031 9.32519.7582.19111c-.1591.6222-.4444 1.0969-.8578 1.424-.4133.3271-.9173.4898-1.5138.4898-.6168 0-1.1191-.1254-1.5057-.3769-.3876-.2507-.6818-.6151-.8827-1.09157-.2027-.47644-.3031-.98844-.3031-1.53511 0-.59644.1138-1.11644.3422-1.56089.2276-.44355.552-.78133.9725-1.01155.4204-.23111.8835-.34578 1.3893-.34578.5733 0 1.0551.14578 1.4453.43733.3902.29156.6631.70223.816 1.23023l-.7458.176c-.1324-.41689-.3253-.72-.5777-.91023-.2525-.19022-.5707-.28533-.9529-.28533-.44 0-.808.10578-1.1031.31645-.296.21066-.5031.49422-.6231.84977-.12.35467-.1796.72178-.1796 1.09956 0 .48711.0711.912.2124 1.27555.1423.36267.3627.63467.6623.81427.2995.1795.624.2693.9724.2693.4249 0 .784-.1227 1.0782-.3671.2943-.2445.4925-.60713.5965-1.08891z"/><path d="m40.5004 7.18473h.7031v1.79289c.224 0 .3814-.04267.4703-.12889.0906-.08622.2222-.336.3964-.75022.1378-.328.2498-.544.336-.648s.1849-.17422.2969-.21067c.112-.03644.2915-.05511.5387-.05511h.1404v.58222l-.1956-.00355c-.1848 0-.3031.02756-.3555.08178-.0551.05689-.1378.22755-.2498.512-.1067.27111-.2044.45866-.2933.56266s-.2249.19911-.4098.28534c.3022.08089.5991.36177.8907.84352l.7697 1.2854h-.7733l-.7502-1.2854c-.1538-.25775-.288-.42752-.4027-.51019-.1146-.08178-.2515-.12267-.4098-.12267v1.91826h-.7031z"/><path d="m47.0879 10.8212c-.2605.2213-.5111.3778-.752.4684-.2409.0916-.4996.1369-.776.1369-.456 0-.8062-.1111-1.0507-.3342-.2444-.2222-.3671-.5067-.3671-.8533 0-.2036.0462-.38936.1387-.55647.0924-.168.2133-.30311.3626-.40445.1494-.10133.3183-.17866.5058-.23022.1378-.03644.3467-.072.6249-.10578.568-.06755.9858-.14844 1.2542-.24177.0027-.096.0036-.15734.0036-.184 0-.28623-.0667-.488-.1991-.60534-.1796-.15911-.4462-.23822-.8009-.23822-.3307 0-.5751.05778-.7324.17422-.1574.11645-.2729.32089-.3485.61511l-.6871-.09333c.0622-.29422.1653-.53156.3084-.71289.1431-.18044.3503-.32.6214-.41778.2711-.09777.5849-.14666.9413-.14666.3538 0 .6418.04178.8631.12533.2213.08356.384.18844.488.31467.104.12711.1769.28622.2187.47911.0231.12.0355.336.0355.648v.93777c0 .6533.0151 1.0676.0445 1.24.0302.1733.0898.3396.1778.4987h-.7343c-.0729-.1476-.12-.3183-.1404-.5138zm-.0587-1.56978c-.2551.104-.6382.19289-1.1484.26577-.2889.04178-.4934.08889-.6134.14045-.12.05155-.2124.12889-.2773.22844-.0649.09956-.0978.21152-.0978.33332 0 .1876.0711.344.2125.4685.1413.1244.3502.1875.6231.1875.2711 0 .512-.0587.7227-.1778.2106-.1191.3662-.2809.4648-.4862.0756-.1591.1129-.39287.1129-.7031z"/><path d="m48.5955 7.18473h.7031v.78489c0 .33867.0195.584.0604.73689.04.152.1378.28444.2916.39822.1537.11289.3466.16978.5777.16978.2658 0 .6098-.07022 1.0312-.21067v-1.87911h.7031v4.14847h-.7031v-1.67202c-.432.13511-.8356.20355-1.2107.20355-.3147 0-.5929-.08-.8338-.24089-.2409-.16-.4044-.35555-.4907-.58755-.0862-.232-.1288-.48711-.1288-.76533z"/><path d="m55.9288 10.8212c-.2604.2213-.5111.3778-.752.4684-.2409.0916-.5004.1369-.776.1369-.456 0-.8062-.1111-1.0506-.3342-.2445-.2222-.3672-.5067-.3672-.8533 0-.2036.0463-.38936.1387-.55647.0925-.168.2133-.30311.3627-.40445.1493-.10133.3182-.17866.5058-.23022.1377-.03644.3466-.072.6248-.10578.568-.06755.9858-.14844 1.2534-.24177.0035-.096.0044-.15734.0044-.184 0-.28623-.0666-.488-.1991-.60534-.1804-.15911-.4471-.23822-.8009-.23822-.3306 0-.5751.05778-.7324.17422-.1574.11645-.2738.32089-.3494.61511l-.6871-.09333c.0623-.29422.1654-.53156.3085-.71289.1431-.18044.3502-.32.6213-.41778.2711-.09777.5849-.14666.9413-.14666.3538 0 .6427.04178.8632.12533.2222.08356.3848.18844.4888.31467.104.12711.1769.28622.2187.47911.0231.12.0356.336.0356.648v.93777c0 .6533.0142 1.0676.0444 1.24.0302.1733.0898.3396.1778.4987h-.7342c-.0729-.1476-.12-.3183-.1405-.5138zm-.0586-1.56978c-.2552.104-.6374.19289-1.1476.26577-.2898.04178-.4942.08889-.6133.14045-.1191.05155-.2125.12889-.2774.22844-.0649.09956-.0977.21152-.0977.33332 0 .1876.0711.344.2124.4685.1413.1244.3502.1875.6231.1875.2711 0 .512-.0587.7227-.1778.2115-.1182.3662-.2809.4649-.4862.0755-.1591.1129-.39287.1129-.7031z"/><path d="m57.3155 7.18473h3.3716v.58222h-1.3351v3.56625h-.6996v-3.56625h-1.3369z"/><path d="m61.5475 7.18473h.7031v1.62134h.8907c.5804 0 1.0275.11288 1.3422.33777.3138.22489.4702.536.4702.93156 0 .3467-.1306.6427-.392.8889-.2622.2453-.6809.3689-1.256.3689h-1.7582zm.7031 3.57067h.7378c.4462 0 .7627-.0551.9529-.1644.1902-.1094.2853-.28.2853-.512 0-.1796-.0702-.3396-.2107-.48093-.1404-.14134-.4524-.21067-.9342-.21067h-.832z"/><path d="m68.3537 7.18473h1.6213c.3974 0 .6943.03289.888.09956.1947.06578.3609.18755.5005.36533.1395.17689.2089.38933.2089.63645 0 .19822-.0409.37066-.1236.51733-.0818.14756-.2044.27022-.3689.36978.1956.06489.3574.18666.4862.36533.1298.17867.1938.39022.1938.63469-.0257.3929-.1671.6853-.4222.8746-.2551.1894-.6267.2854-1.1129.2854h-1.8711zm.7031 1.74578h.7502c.2996 0 .5049-.016.6169-.04711s.2116-.09422.3014-.18933c.088-.09423.1315-.20889.1315-.34134 0-.21866-.0773-.37066-.232-.45689-.1555-.08622-.4204-.12889-.7955-.12889h-.7734zm0 1.82489h.9254c.3991 0 .6719-.0462.8213-.1387.1475-.0924.2258-.2515.2346-.4782 0-.1324-.0435-.25599-.1297-.36888-.0862-.11378-.1983-.18489-.336-.21511-.1378-.02933-.3591-.04444-.664-.04444h-.8516z"/></g></svg>