<svg viewBox="0 0 18 18" xmlns="http://www.w3.org/2000/svg"><path fill="#fff" d="M17.946 5.289c-.044-.958-.196-1.612-.418-2.185-.23-.592-.538-1.094-1.038-1.594S15.488.702 14.896.472C14.323.25 13.669.097 12.711.054 11.751.01 11.444 0 9 0S6.249.01 5.289.054C4.331.098 3.677.25 3.105.472c-.592.23-1.094.538-1.594 1.038S.703 2.512.473 3.104C.25 3.677.098 4.331.054 5.289.01 6.249 0 6.556 0 9s.01 2.751.054 3.711c.044.958.196 1.612.418 2.185.23.592.538 1.094 1.038 1.594.5.501 1.002.808 1.594 1.038.573.223 1.227.375 2.185.418C6.249 17.99 6.556 18 9 18s2.751-.011 3.711-.054c.958-.044 1.612-.196 2.185-.418.592-.23 1.094-.538 1.594-1.038s.808-1.002 1.038-1.594c.222-.572.375-1.227.418-2.185.044-.96.054-1.267.054-3.711s-.01-2.751-.054-3.711zm-1.609 7.353c-.04.879-.187 1.356-.31 1.674a2.796 2.796 0 0 1-.674 1.036c-.29.3-.645.53-1.036.674-.318.124-.795.271-1.674.31-.95.043-1.235.053-3.642.053s-2.692-.009-3.642-.053c-.879-.04-1.356-.187-1.674-.31-.421-.163-.721-.359-1.036-.674s-.511-.616-.674-1.036c-.123-.318-.27-.795-.31-1.674-.045-.95-.054-1.235-.054-3.642s.009-2.692.053-3.642c.04-.879.187-1.356.31-1.674.164-.421.359-.721.674-1.036.29-.3.645-.53 1.036-.674.318-.123.795-.27 1.674-.31C6.308 1.62 6.593 1.61 9 1.61s2.692.009 3.642.053c.879.04 1.356.187 1.674.31.421.164.721.359 1.036.674s.511.616.674 1.036c.123.318.27.795.31 1.674.043.951.052 1.236.052 3.642.001 2.408-.008 2.693-.051 3.643zM9 4.381a4.619 4.619 0 1 0 0 9.238 4.619 4.619 0 0 0 0-9.238zm0 7.627a3.008 3.008 0 1 1 0-6.016 3.008 3.008 0 0 1 0 6.016zm4.796-8.882a1.079 1.079 0 1 0 0 2.157 1.079 1.079 0 0 0 0-2.157z"></path></svg>