<svg viewBox="0 0 18 15" xmlns="http://www.w3.org/2000/svg"><path fill="#fff" d="M17.999 1.752a7.061 7.061 0 0 1-2.121.657 3.928 3.928 0 0 0 1.626-2.19c-.73.443-1.52.775-2.345.985A3.548 3.548 0 0 0 12.463 0a3.679 3.679 0 0 0-2.645 1.13 3.757 3.757 0 0 0-1.047 2.702c0 .259.033.516.096.767A10.196 10.196 0 0 1 1.256.657c-.34.6-.512 1.28-.5 1.97a3.63 3.63 0 0 0 1.642 3.067 2.954 2.954 0 0 1-1.673-.438v.11a3.926 3.926 0 0 0 2.962 3.722c-.308 0-.636.11-.975.11a1.523 1.523 0 0 1-.696-.11 3.636 3.636 0 0 0 3.45 2.627 6.878 6.878 0 0 1-4.585 1.643H0A10.986 10.986 0 0 0 5.658 15a10.472 10.472 0 0 0 7.465-3.155 10.696 10.696 0 0 0 3.045-7.575c0-.22 0-.329-.01-.548A7.755 7.755 0 0 0 18 1.752h-.002z" fill-rule="evenodd" clip-rule="evenodd"></path></svg>