<svg viewBox="0 0 19 20" xmlns="http://www.w3.org/2000/svg"><path fill="#fff" d="M17.41 11.21c-.506 4.064-3.483 4.32-4.032 4.497-.234.075-2.406.614-5.136.435l-2.96 3.199-.003-3.686-.023-.006c-3.977-1.102-3.843-5.236-3.798-7.405.044-2.17.453-3.947 1.666-5.142 2.179-1.97 6.667-1.676 6.667-1.676 3.79.017 5.608 1.156 6.028 1.538 1.4 1.196 2.112 4.056 1.59 8.246zm-.555-9.26c-.499-.458-2.51-1.916-6.991-1.936 0 0-5.284-.318-7.86 2.041C.57 3.487.066 5.581.012 8.18c-.053 2.598-.123 7.465 4.578 8.785l.004.001-.002 2.014s-.03.816.507.982c.65.202 1.033-.418 1.654-1.086.341-.366.812-.904 1.167-1.316 3.215.269 5.687-.348 5.968-.438.649-.211 4.322-.68 4.92-5.547.614-5.02-.3-8.193-1.954-9.625z"></path><path fill="#fff" d="M13.988 11.816a27.654 27.654 0 0 0-.896-.717 11.483 11.483 0 0 0-.965-.615c-.442-.246-.895-.091-1.082.15l-.388.487c-.2.247-.506.205-.586.19-.574-.14-1.184-.49-1.806-1.079-.632-.593-1.013-1.214-1.15-1.86l-.01-.041a.72.72 0 0 1 .12-.569l.021-.016c.262-.238.747-.527.813-.802.19-.478-.638-1.475-.756-1.65 0 0-.603-.779-.817-.927-.231-.188-.59-.295-.951-.078l-.018.013C4.48 4.988 4.103 5.381 4.205 5.97l.054.236c.527 1.62 1.543 3.345 3.06 4.882 1.5 1.518 3.123 2.427 4.722 3.057.416.134.847.018 1.29-.35l.007-.005c.338-.31.606-.64.807-.994l.002-.007c.193-.377.127-.73-.16-.971zm-2.49-3.545a.119.119 0 0 1-.119-.114c-.021-.42-.138-.74-.346-.956-.206-.213-.517-.332-.92-.354A.12.12 0 0 1 10 6.722a.116.116 0 0 1 .039-.082.122.122 0 0 1 .087-.032c.466.025.83.17 1.08.428.249.257.388.63.411 1.11a.12.12 0 0 1-.114.125h-.005z"></path><path fill="#fff" d="M12.681 8.667h-.003a.119.119 0 0 1-.116-.123c.018-.806-.223-1.486-.718-2.025a2.587 2.587 0 0 0-.89-.631 3.666 3.666 0 0 0-1.194-.276.12.12 0 0 1-.11-.128.12.12 0 0 1 .127-.11c.954.07 1.708.4 2.243.984.537.585.8 1.323.78 2.192a.119.119 0 0 1-.119.117z"></path><path fill="#fff" d="M13.893 9.14a.123.123 0 0 1-.085-.035.114.114 0 0 1-.034-.083c-.006-.712-.115-1.357-.329-1.915a3.99 3.99 0 0 0-.946-1.45 4.293 4.293 0 0 0-1.413-.922 4.756 4.756 0 0 0-1.723-.317.12.12 0 0 1-.119-.12.12.12 0 0 1 .12-.118c1.31.009 2.42.448 3.302 1.306.443.43.78.948 1.004 1.535.223.585.338 1.258.344 1.998a.12.12 0 0 1-.118.12l-.003.001z"></path></svg>