<svg viewBox="0 0 27 24" xmlns="http://www.w3.org/2000/svg"><path d="M.446 7.857C.446 3.78 3.611.462 7.534.462c1.896 0 3.663.782 4.966 2.118C13.804 1.244 15.57.462 17.466.462c3.924 0 7.088 3.32 7.088 7.395 0 2.094-.84 4.052-2.259 5.412L12.498 23.54 2.665 13.23C1.258 11.841.447 9.914.447 7.856z" fill-rule="evenodd" clip-rule="evenodd" fill="#ffa800"></path><path fill-rule="evenodd" clip-rule="evenodd" d="M0 7.678C0 3.508 3.225 0 7.356 0c2.016 0 3.827.845 5.144 2.19C13.817.845 15.63 0 17.645 0 21.775 0 25 3.508 25 7.678c0 2.21-.897 4.216-2.347 5.624L12.498 24.001 2.291 13.244A7.83 7.83 0 0 1 0 7.676zm7.356-5.579c-2.815 0-5.221 2.428-5.221 5.579 0 1.632.654 3.086 1.68 4.1l.013.012 8.67 9.135 8.626-9.088.017-.017c1.052-1.014 1.724-2.487 1.724-4.142 0-3.151-2.405-5.58-5.22-5.58-1.732 0-3.292.906-4.252 2.344L12.5 5.777l-.892-1.336c-.961-1.438-2.521-2.343-4.253-2.343z" fill="#ffa800"></path><path fill="#00A046" clip-rule="evenodd" d="M19.98 22.91c3.877 0 7.02-3.175 7.02-7.091 0-3.917-3.143-7.091-7.02-7.091s-7.02 3.174-7.02 7.091c0 3.916 3.143 7.091 7.02 7.091z" fill-rule="evenodd"></path><path fill="#fff" clip-rule="evenodd" d="M21.06 12H18.9v2.728h-2.7v2.182h2.7v2.727h2.16V16.91h2.7v-2.182h-2.7V12z" fill-rule="evenodd"></path></svg>