<svg xmlns="http://www.w3.org/2000/svg" width="30" height="30" viewBox="0 0 30 30"><g><g><path fill="#b9bbbd" d="M14.969 0C23.288 0 30.03 6.716 30.03 15c0 8.284-6.743 15-15.062 15C6.649 30-.094 23.284-.094 15c0-8.284 6.744-15 15.063-15z"/></g><g><path fill="#132947" d="M21.325 20.576c-.452.147-3.241.293-6.03.293-2.788 0-5.577-.146-6.03-.293C8.06 20.209 7.76 17.641 7.76 15c0-2.641.301-5.21 1.507-5.576.452-.147 3.24-.294 6.03-.294 2.788 0 5.577.147 6.029.294 1.206.367 1.507 2.935 1.507 5.576 0 2.641-.301 5.21-1.507 5.576zm-7.537-8.878v6.604L18.31 15z"/></g></g></svg>