<svg width="9" height="12" viewBox="0 0 9 12" fill="none" xmlns="http://www.w3.org/2000/svg">
<path d="M7.875 6.84766L3.09375 11.6289C2.92969 11.793 2.73047 11.875 2.49609 11.875C2.26172 11.875 2.0625 11.793 1.89844 11.6289L1.125 10.8203C0.960938 10.6562 0.878906 10.457 0.878906 10.2227C0.878906 9.98828 0.960938 9.78906 1.125 9.625L4.5 6.25L1.125 2.875C0.960938 2.71094 0.878906 2.51172 0.878906 2.27734C0.878906 2.04297 0.960938 1.84375 1.125 1.67969L1.89844 0.871094C2.0625 0.707031 2.26172 0.625 2.49609 0.625C2.73047 0.625 2.92969 0.707031 3.09375 0.871094L7.875 5.65234C8.03906 5.81641 8.12109 6.01562 8.12109 6.25C8.12109 6.48438 8.03906 6.68359 7.875 6.84766Z" fill="#888888"/>
</svg>
