<svg xmlns="http://www.w3.org/2000/svg" width="31" height="30" viewBox="0 0 31 30"><g><g><path fill="#b9bbbd" d="M15.672 0C23.999 0 30.75 6.716 30.75 15c0 8.284-6.75 15-15.078 15S.594 23.284.594 15c0-8.284 6.75-15 15.078-15z"/></g><g><path fill="#132947" d="M10.96 13.023a.364.364 0 0 0-.355.373v7.1c0 .206.158.373.354.373h1.604a.364.364 0 0 0 .354-.374v-7.099a.364.364 0 0 0-.354-.373zm2.14-2.487c0-.78-.6-1.414-1.339-1.414-.74 0-1.34.633-1.34 1.414 0 .78.6 1.413 1.34 1.413.739 0 1.339-.633 1.339-1.413zm8.47 9.96v-3.93c0-2.114-.432-3.738-2.77-3.738-.934 0-1.613.448-1.992.954-.121.162-.201.313-.21.313-.008 0-.015-.168-.015-.374v-.325a.364.364 0 0 0-.354-.373H14.72a.364.364 0 0 0-.354.373v7.1c0 .206.158.374.354.374h1.601a.364.364 0 0 0 .354-.374v-3.508c0-1.024.184-2.015 1.386-2.015 1.184 0 1.201 1.17 1.201 2.08v3.442c0 .207.159.374.354.374h1.6a.364.364 0 0 0 .354-.374z"/></g></g></svg>