<svg viewBox="0 0 29 22" xmlns="http://www.w3.org/2000/svg"><path fill-rule="evenodd" clip-rule="evenodd" d="M11.136 15.463c-.37 2.534-2.366 4.426-4.7 4.426-2.332 0-4.329-1.892-4.699-4.426h9.4zm-8.685-1.7l3.986-5.747 3.985 5.748h-7.97zm10.374.595a1.792 1.792 0 0 0-.104-.234L7.122 6.05a.824.824 0 0 0-.685-.361.824.824 0 0 0-.686.361L.152 14.125a1.8 1.8 0 0 0-.104.234 1.742 1.742 0 0 0-.048.255c0 3.846 2.888 6.975 6.437 6.975 3.549 0 6.436-3.13 6.436-6.975 0-.034-.031-.2-.048-.256zM27.25 15.463c-.37 2.534-2.367 4.426-4.7 4.426s-4.33-1.892-4.7-4.426h9.4zm-8.686-1.7l3.986-5.747 3.986 5.748h-7.972zm10.374.595a1.718 1.718 0 0 0-.104-.234L23.235 6.05a.823.823 0 0 0-.685-.361.822.822 0 0 0-.685.361l-5.6 8.076c-.018.027-.086.181-.103.234a1.74 1.74 0 0 0-.049.255c0 3.846 2.888 6.975 6.437 6.975 3.549 0 6.437-3.13 6.437-6.975 0-.034-.032-.2-.049-.256zM23.506 1.793h-6.337C16.766.717 15.757 0 14.63 0c-1.128 0-2.137.717-2.54 1.793H6.028a.845.845 0 0 0-.838.849c0 .468.376.85.838.85h5.968c.316 1.222 1.386 2.067 2.635 2.067 1.25 0 2.318-.845 2.634-2.067h6.242a.846.846 0 0 0 .838-.85.845.845 0 0 0-.838-.85z"></path></svg>