<svg fill="none" viewBox="0 0 16 16" xmlns="http://www.w3.org/2000/svg"><path d="M7.15 2.63a.889.889 0 0 1 1.7 0l.85 2.55a.905.905 0 0 0 .831.63l2.585.055c.854.018 1.206 1.15.526 1.687l-2.06 1.63a.963.963 0 0 0-.318 1.02l.748 2.583c.248.852-.675 1.551-1.375 1.043l-2.123-1.541a.87.87 0 0 0-1.028 0l-2.123 1.54c-.7.51-1.623-.19-1.376-1.042l.75-2.582a.963.963 0 0 0-.319-1.02l-2.06-1.63c-.68-.539-.328-1.67.526-1.688l2.585-.055a.905.905 0 0 0 .832-.63l.849-2.55z" fill="#F79E1B"></path><path fill-rule="evenodd" clip-rule="evenodd" d="M15.854.146a.5.5 0 0 1 0 .708l-1 1a.5.5 0 0 1-.708-.708l1-1a.5.5 0 0 1 .708 0z" fill="#E61F35"></path><path fill-rule="evenodd" clip-rule="evenodd" d="M1.854 14.146a.5.5 0 0 1 0 .708l-1 1a.5.5 0 0 1-.708-.708l1-1a.5.5 0 0 1 .708 0z" fill="#42AFFF"></path><path fill-rule="evenodd" clip-rule="evenodd" d="M15.854 15.854a.5.5 0 0 0 0-.708l-1-1a.5.5 0 0 0-.708.708l1 1a.5.5 0 0 0 .708 0zM.146.146a.5.5 0 0 0 0 .708l1 1a.5.5 0 1 0 .708-.708l-1-1a.5.5 0 0 0-.708 0z" fill="#18B858"></path><path d="M15 10a1 1 0 1 1-2 0 1 1 0 0 1 2 0z" fill="#334DA1"></path><path d="M13 3a1 1 0 1 1-2 0 1 1 0 0 1 2 0z" fill="#50FE95"></path><path d="M3 11a1 1 0 1 1-2 0 1 1 0 0 1 2 0z" fill="#E61F35"></path><path d="M5 2a1 1 0 1 1-2 0 1 1 0 0 1 2 0z" fill="#334DA1"></path><path fill-rule="evenodd" clip-rule="evenodd" d="M8 13.5a.5.5 0 0 1 .5.5v1a.5.5 0 0 1-1 0v-1a.5.5 0 0 1 .5-.5z" fill="#E61F35"></path></svg>