<svg viewBox="0 0 28 28" xmlns="http://www.w3.org/2000/svg">
    <path fill-rule="evenodd" clip-rule="evenodd" d="M20.75 18.5H7.25a.75.75 0 0 1-.75-.75v-7.053c.009.007.016.015.024.02l5.723 4.121a2.997 2.997 0 0 0 3.506 0l5.724-4.12c.008-.007.014-.015.023-.022v7.054a.75.75 0 0 1-.75.75zm-.15-9l-5.723 4.121a1.498 1.498 0 0 1-1.753 0L7.4 9.501h13.2zm.15-1.5H7.25C6.01 8 5 9.01 5 10.25v7.5C5 18.991 6.01 20 7.25 20h13.5c1.24 0 2.25-1.009 2.25-2.25v-7.5C23 9.01 21.99 8 20.75 8z" fill="#fff">
</path>
</svg>