<svg viewBox="-17.5 -17.5 60 60" xmlns="http://www.w3.org/2000/svg"><g xmlns="http://www.w3.org/2000/svg"><path fill="none" d="M-2.675-15.5h32v32h-32z"></path><path fill="#FFA800" d="M10.055-8.922C4.027-8.425-.725-3.36-.725 2.795c0 6.481 5.272 11.755 11.755 11.755 6.154 0 11.218-4.752 11.716-10.781H11.031a.976.976 0 0 1-.976-.974V-8.922zm.976 25.422c-7.558 0-13.706-6.15-13.706-13.705 0-7.559 6.148-13.708 13.706-13.708.539 0 .974.437.974.975V1.82h11.757c.538 0 .976.436.976.975C24.737 10.35 18.587 16.5 11.031 16.5z"></path><path fill="#FFA800" d="M16.592-2.769h10.742c-.47-5.705-5.034-10.271-10.742-10.742v10.742zM28.35-.819H15.616a.975.975 0 0 1-.976-.975v-12.732c0-.539.438-.975.976-.975 7.559 0 13.708 6.148 13.708 13.707 0 .54-.437.975-.974.975z"></path></g><path d="M-4.224 28.84c2.16 0 3.72-1.521 3.72-3.62s-1.56-3.62-3.72-3.62-3.72 1.521-3.72 3.62 1.56 3.62 3.72 3.62zm0-1.261c-1.37 0-2.3-.949-2.3-2.359s.93-2.359 2.3-2.359 2.3.949 2.3 2.359-.93 2.359-2.3 2.359zm11.07-5.859h-6.1v7h1.36v-5.74h3.38v5.74h1.36v-7zm7.675 0h-5.31v2.66c0 2.37-.16 3.12-.87 3.12-.13 0-.33-.021-.55-.12v1.23c.29.14.53.159.83.149 1.52-.05 1.94-1.32 1.94-4.649V23h2.601v5.72h1.359v-7zm6.827 7h1.569l-3.76-7.22-3.74 7.22h1.461l.67-1.35h3.129l.671 1.35zm-3.261-2.45l1.03-2.069 1.021 2.069h-2.051zm10.032-4.55h-5.96v1.24h2.3v5.76h1.36v-5.76h2.3v-1.24zm5.181 7h1.57l-3.76-7.22-3.74 7.22h1.461l.67-1.35h3.129l.67 1.35zm-3.26-2.45l1.03-2.069 1.021 2.069H30.04zM-7.458 32.72v2.85c-.54.301-1.16.471-1.73.471-.77 0-1.25-.42-1.25-1.09v-2.23l-1.36-.01v2.26c0 1.41.96 2.38 2.34 2.38.73 0 1.44-.319 2-.89v3.26h1.36v-7h-1.36zm8.19 7h1.57l-3.76-7.22-3.74 7.22h1.46l.67-1.35h3.13l.67 1.35zm-3.26-2.45l1.03-2.069 1.02 2.069h-2.05zM6 39.84c.95 0 1.81-.261 2.45-.74v-1.5c-.52.511-1.44.96-2.45.96-1.39 0-2.25-.939-2.24-2.449.01-1.311.81-2.25 1.9-2.25 1.02 0 1.5.459 1.5 1.35h1.32c0-1.62-.96-2.61-2.74-2.61-1.9 0-3.39 1.55-3.39 3.511 0 2.228 1.46 3.728 3.65 3.728zm9.023-7.12h-5.96v1.24h2.3v5.76h1.36v-5.76h2.3v-1.24zm6.042 0h-2.97c-1.57 0-2.42.891-2.42 2.109 0 .961.53 1.721 1.53 2l-2.23 2.891h1.66l2.05-2.77h1.021v2.77h1.359v-7zm-3.059 3.06c-.54 0-.931-.391-.931-.961 0-.55.391-.939.931-.939h1.7v1.9h-1.7zM29 32.72l-2.51 3.75L24 32.72h-1.33v7H24v-4.74l2.47 3.84 2.471-3.83v4.73h1.33v-7H29zm7.929 0L33.23 36.8v-4.08h-1.36v7.4l4.94-5.471v5.07h1.359v-7h-1.24z"></path></svg>