<svg fill="none" viewBox="0 0 23 23" xmlns="http://www.w3.org/2000/svg"><path d="M0 0h23v23H0z"></path><path d="M21.905 0H1.095C.49 0 0 .49 0 1.095v20.81C0 22.51.49 23 1.095 23h20.81C22.51 23 23 22.51 23 21.905V1.095C23 .491 22.51 0 21.905 0zM2.191 20.809V2.19H20.81v18.619H2.191zm14.238-7.025v-1.737a1.095 1.095 0 0 1 2.19 0v4.381c0 .605-.49 1.095-1.095 1.095h-4.38a1.095 1.095 0 1 1 0-2.19h1.736l-3.927-3.927-1.416 1.416a1.095 1.095 0 0 1-1.549 0l-4.381-4.38a1.095 1.095 0 1 1 1.549-1.55L8.762 10.5l1.416-1.417a1.095 1.095 0 0 1 1.55 0l4.701 4.702z" fill-rule="evenodd" clip-rule="evenodd" fill="#ffa800"></path></svg>