<svg viewBox="0 0 25 23" xmlns="http://www.w3.org/2000/svg"><path d="M.446 7.527A7.087 7.087 0 0 1 12.5 2.47a7.087 7.087 0 0 1 12.054 5.057 7.04 7.04 0 0 1-2.259 5.187l-9.797 9.843-9.833-9.88a7.067 7.067 0 0 1-2.218-5.15z" fill-rule="evenodd" clip-rule="evenodd" fill="currentColor"></path><path d="M0 7.356C0 3.359 3.225-.002 7.356-.002A7.33 7.33 0 0 1 12.5 2.097a7.328 7.328 0 0 1 5.145-2.099C21.775-.002 25 3.359 25 7.356c0 2.118-.897 4.04-2.347 5.39L12.498 22.998 2.291 12.69A7.346 7.346 0 0 1 0 7.354zM7.356 2.01c-2.815 0-5.221 2.326-5.221 5.346 0 1.564.654 2.958 1.68 3.928l.013.012 8.67 8.755 8.626-8.71.017-.015a5.387 5.387 0 0 0 1.724-3.97c0-3.02-2.405-5.347-5.22-5.347-1.732 0-3.292.868-4.252 2.246L12.5 5.534l-.892-1.28C10.647 2.876 9.087 2.01 7.355 2.01z" fill-rule="evenodd" clip-rule="evenodd" fill="#ffa800"></path></svg>