<svg width="10" height="10" viewBox="0 0 10 10" fill="none" xmlns="http://www.w3.org/2000/svg">
<path d="M8.78125 9.6875H1.21875C0.932292 9.6875 0.688802 9.58724 0.488281 9.38672C0.28776 9.1862 0.1875 8.94271 0.1875 8.65625V1.09375C0.1875 0.807292 0.28776 0.563802 0.488281 0.363281C0.688802 0.16276 0.932292 0.0625 1.21875 0.0625H8.78125C9.06771 0.0625 9.3112 0.16276 9.51172 0.363281C9.71224 0.563802 9.8125 0.807292 9.8125 1.09375V8.65625C9.8125 8.94271 9.71224 9.1862 9.51172 9.38672C9.3112 9.58724 9.06771 9.6875 8.78125 9.6875ZM4.37695 7.58203L8.33008 3.62891C8.50195 3.47135 8.50195 3.30664 8.33008 3.13477L7.85742 2.66211C7.68555 2.49023 7.52083 2.49023 7.36328 2.66211L4.14062 5.88477L2.63672 4.38086C2.47917 4.20898 2.31445 4.20898 2.14258 4.38086L1.66992 4.85352C1.49805 5.02539 1.49805 5.1901 1.66992 5.34766L3.9043 7.58203C4.06185 7.73958 4.2194 7.73958 4.37695 7.58203Z" fill="#00BF67"/>
</svg>
