<svg width="47" height="11" viewBox="0 0 47 11" fill="none" xmlns="http://www.w3.org/2000/svg">
<path d="M0.600899 10C0.514232 10 0.440565 9.974 0.379898 9.922C0.327898 9.86133 0.301899 9.78767 0.301899 9.701V1.199C0.301899 1.11233 0.327898 1.043 0.379898 0.991C0.440565 0.930333 0.514232 0.899999 0.600899 0.899999H1.2899C1.37657 0.899999 1.4459 0.930333 1.4979 0.991C1.55857 1.043 1.5889 1.11233 1.5889 1.199V9.701C1.5889 9.78767 1.55857 9.86133 1.4979 9.922C1.4459 9.974 1.37657 10 1.2899 10H0.600899ZM3.98659 10C3.89992 10 3.82625 9.974 3.76559 9.922C3.71359 9.86133 3.68759 9.78767 3.68759 9.701V3.539C3.68759 3.45233 3.71359 3.383 3.76559 3.331C3.82625 3.27033 3.89992 3.24 3.98659 3.24H4.59759C4.68425 3.24 4.75359 3.27033 4.80559 3.331C4.86625 3.383 4.89659 3.45233 4.89659 3.539V4.111C5.14792 3.79033 5.44259 3.54333 5.78059 3.37C6.12725 3.19667 6.55625 3.11 7.06759 3.11C7.89959 3.11 8.54525 3.37867 9.00459 3.916C9.47259 4.44467 9.70659 5.151 9.70659 6.035V9.701C9.70659 9.78767 9.67625 9.86133 9.61559 9.922C9.56359 9.974 9.49425 10 9.40759 10H8.75759C8.67092 10 8.59725 9.974 8.53659 9.922C8.48459 9.86133 8.45859 9.78767 8.45859 9.701V6.1C8.45859 5.48467 8.30692 5.008 8.00359 4.67C7.70892 4.332 7.27992 4.163 6.71659 4.163C6.17059 4.163 5.73725 4.33633 5.41659 4.683C5.09592 5.021 4.93559 5.49333 4.93559 6.1V9.701C4.93559 9.78767 4.90525 9.86133 4.84459 9.922C4.79259 9.974 4.72325 10 4.63659 10H3.98659ZM17.0979 10.13C16.4912 10.13 15.9799 10.0347 15.5639 9.844C15.1566 9.64467 14.8489 9.41933 14.6409 9.168C14.4416 8.91667 14.3419 8.70867 14.3419 8.544C14.3419 8.45733 14.3722 8.39233 14.4329 8.349C14.5022 8.297 14.5716 8.271 14.6409 8.271H15.2259C15.3126 8.271 15.3906 8.31433 15.4599 8.401C15.6679 8.64367 15.8932 8.83433 16.1359 8.973C16.3786 9.11167 16.7036 9.181 17.1109 9.181C17.5616 9.181 17.9256 9.09433 18.2029 8.921C18.4889 8.739 18.6319 8.492 18.6319 8.18C18.6319 7.972 18.5712 7.803 18.4499 7.673C18.3372 7.53433 18.1379 7.41733 17.8519 7.322C17.5746 7.218 17.1586 7.10533 16.6039 6.984C15.8499 6.81933 15.3126 6.581 14.9919 6.269C14.6799 5.957 14.5239 5.554 14.5239 5.06C14.5239 4.73067 14.6192 4.41867 14.8099 4.124C15.0092 3.82067 15.2952 3.578 15.6679 3.396C16.0492 3.20533 16.5042 3.11 17.0329 3.11C17.5876 3.11 18.0599 3.201 18.4499 3.383C18.8399 3.565 19.1302 3.78167 19.3209 4.033C19.5202 4.27567 19.6199 4.47933 19.6199 4.644C19.6199 4.722 19.5896 4.787 19.5289 4.839C19.4769 4.891 19.4119 4.917 19.3339 4.917H18.7879C18.6839 4.917 18.5972 4.87367 18.5279 4.787C18.3892 4.62233 18.2679 4.49667 18.1639 4.41C18.0686 4.31467 17.9256 4.23233 17.7349 4.163C17.5529 4.09367 17.3189 4.059 17.0329 4.059C16.6169 4.059 16.2962 4.15 16.0709 4.332C15.8456 4.50533 15.7329 4.735 15.7329 5.021C15.7329 5.203 15.7806 5.359 15.8759 5.489C15.9712 5.61033 16.1532 5.723 16.4219 5.827C16.6992 5.931 17.0979 6.03933 17.6179 6.152C18.4412 6.32533 19.0219 6.57667 19.3599 6.906C19.7066 7.22667 19.8799 7.63833 19.8799 8.141C19.8799 8.51367 19.7716 8.85167 19.5549 9.155C19.3382 9.45833 19.0176 9.69667 18.5929 9.87C18.1769 10.0433 17.6786 10.13 17.0979 10.13ZM24.0112 10C22.6418 10 21.9572 9.23733 21.9572 7.712V4.28H20.9432C20.8565 4.28 20.7828 4.254 20.7222 4.202C20.6702 4.14133 20.6442 4.06767 20.6442 3.981V3.539C20.6442 3.45233 20.6702 3.383 20.7222 3.331C20.7828 3.27033 20.8565 3.24 20.9432 3.24H21.9572V1.069C21.9572 0.982333 21.9832 0.913 22.0352 0.861C22.0958 0.800333 22.1695 0.77 22.2562 0.77H22.8672C22.9538 0.77 23.0232 0.800333 23.0752 0.861C23.1358 0.913 23.1662 0.982333 23.1662 1.069V3.24H24.7782C24.8648 3.24 24.9342 3.27033 24.9862 3.331C25.0468 3.383 25.0772 3.45233 25.0772 3.539V3.981C25.0772 4.06767 25.0468 4.14133 24.9862 4.202C24.9342 4.254 24.8648 4.28 24.7782 4.28H23.1662V7.621C23.1662 8.05433 23.2398 8.38367 23.3872 8.609C23.5345 8.82567 23.7772 8.934 24.1152 8.934H24.9082C24.9948 8.934 25.0642 8.96433 25.1162 9.025C25.1768 9.077 25.2072 9.14633 25.2072 9.233V9.701C25.2072 9.78767 25.1768 9.86133 25.1162 9.922C25.0642 9.974 24.9948 10 24.9082 10H24.0112ZM29.2193 10.13C28.2659 10.13 27.5249 9.86133 26.9963 9.324C26.4763 8.78667 26.1989 8.07167 26.1643 7.179L26.1513 6.62L26.1643 6.061C26.1989 5.177 26.4806 4.46633 27.0093 3.929C27.5379 3.383 28.2746 3.11 29.2193 3.11C30.1639 3.11 30.9006 3.383 31.4293 3.929C31.9579 4.46633 32.2396 5.177 32.2743 6.061C32.2829 6.15633 32.2873 6.34267 32.2873 6.62C32.2873 6.89733 32.2829 7.08367 32.2743 7.179C32.2396 8.07167 31.9579 8.78667 31.4293 9.324C30.9093 9.86133 30.1726 10.13 29.2193 10.13ZM29.2193 9.129C29.7653 9.129 30.1943 8.95567 30.5063 8.609C30.8269 8.26233 31.0003 7.764 31.0263 7.114C31.0349 7.02733 31.0393 6.86267 31.0393 6.62C31.0393 6.37733 31.0349 6.21267 31.0263 6.126C31.0003 5.476 30.8269 4.97767 30.5063 4.631C30.1943 4.28433 29.7653 4.111 29.2193 4.111C28.6733 4.111 28.2399 4.28433 27.9193 4.631C27.5986 4.97767 27.4296 5.476 27.4123 6.126L27.3993 6.62L27.4123 7.114C27.4296 7.764 27.5986 8.26233 27.9193 8.609C28.2399 8.95567 28.6733 9.129 29.2193 9.129ZM36.6451 10.13C35.7178 10.13 34.9898 9.87 34.4611 9.35C33.9411 8.82133 33.6638 8.08467 33.6291 7.14L33.6161 6.62L33.6291 6.1C33.6638 5.15533 33.9411 4.423 34.4611 3.903C34.9898 3.37433 35.7178 3.11 36.6451 3.11C37.2691 3.11 37.7978 3.22267 38.2311 3.448C38.6645 3.67333 38.9851 3.95067 39.1931 4.28C39.4098 4.60933 39.5268 4.93867 39.5441 5.268C39.5528 5.35467 39.5268 5.424 39.4661 5.476C39.4055 5.528 39.3318 5.554 39.2451 5.554H38.6211C38.5345 5.554 38.4695 5.53667 38.4261 5.502C38.3828 5.46733 38.3395 5.398 38.2961 5.294C38.1488 4.878 37.9408 4.58333 37.6721 4.41C37.4035 4.228 37.0655 4.137 36.6581 4.137C36.1208 4.137 35.6918 4.306 35.3711 4.644C35.0591 4.97333 34.8901 5.48033 34.8641 6.165L34.8511 6.633L34.8641 7.075C34.8901 7.76833 35.0591 8.27967 35.3711 8.609C35.6831 8.93833 36.1121 9.103 36.6581 9.103C37.0655 9.103 37.4035 9.01633 37.6721 8.843C37.9408 8.661 38.1488 8.362 38.2961 7.946C38.3395 7.842 38.3828 7.77267 38.4261 7.738C38.4695 7.69467 38.5345 7.673 38.6211 7.673H39.2451C39.3318 7.673 39.4055 7.70333 39.4661 7.764C39.5268 7.816 39.5528 7.88533 39.5441 7.972C39.5268 8.29267 39.4098 8.622 39.1931 8.96C38.9851 9.28933 38.6645 9.56667 38.2311 9.792C37.8065 10.0173 37.2778 10.13 36.6451 10.13ZM41.4 10C41.3133 10 41.2396 9.974 41.179 9.922C41.127 9.86133 41.101 9.78767 41.101 9.701V1.069C41.101 0.982333 41.127 0.913 41.179 0.861C41.2396 0.800333 41.3133 0.77 41.4 0.77H42.011C42.0976 0.77 42.167 0.800333 42.219 0.861C42.2796 0.913 42.31 0.982333 42.31 1.069V5.593L44.871 3.461C44.897 3.44367 44.9403 3.409 45.001 3.357C45.0616 3.31367 45.118 3.28333 45.17 3.266C45.2306 3.24867 45.3043 3.24 45.391 3.24H46.08C46.158 3.24 46.223 3.266 46.275 3.318C46.327 3.37 46.353 3.435 46.353 3.513C46.353 3.60833 46.301 3.69067 46.197 3.76L43.194 6.256L46.522 9.493C46.626 9.57967 46.678 9.65767 46.678 9.727C46.678 9.805 46.652 9.87 46.6 9.922C46.548 9.974 46.483 10 46.405 10H45.729C45.599 10 45.5036 9.987 45.443 9.961C45.391 9.935 45.313 9.87433 45.209 9.779L42.31 7.01V9.701C42.31 9.78767 42.2796 9.86133 42.219 9.922C42.167 9.974 42.0976 10 42.011 10H41.4Z" fill="#00BF67"/>
</svg>
