<svg width="14" height="12" viewBox="0 0 14 12" fill="none" xmlns="http://www.w3.org/2000/svg">
<path d="M12.2559 1.22461C13.0514 1.90169 13.4746 2.76497 13.5254 3.81445C13.5762 4.86393 13.2376 5.7526 12.5098 6.48047L7.60938 11.5586C7.4401 11.7279 7.24544 11.8125 7.02539 11.8125C6.80534 11.8125 6.61068 11.7279 6.44141 11.5586L1.54102 6.48047C0.813151 5.7526 0.474609 4.86393 0.525391 3.81445C0.576172 2.76497 0.999349 1.90169 1.79492 1.22461C2.48893 0.632161 3.28451 0.378255 4.18164 0.462891C5.0957 0.530599 5.87435 0.894531 6.51758 1.55469L7.02539 2.0625L7.5332 1.55469C8.17643 0.894531 8.94661 0.530599 9.84375 0.462891C10.7578 0.378255 11.5618 0.632161 12.2559 1.22461Z" fill="white"/>
</svg>
