<svg width="20" height="20" viewBox="0 0 20 20" fill="none" xmlns="http://www.w3.org/2000/svg">
<path d="M3.46875 3.38086C5.27474 1.57487 7.45182 0.671875 10 0.671875C12.5482 0.671875 14.7129 1.57487 16.4941 3.38086C18.3001 5.16211 19.2031 7.32682 19.2031 9.875C19.2031 12.4232 18.3001 14.6003 16.4941 16.4062C14.7129 18.1875 12.5482 19.0781 10 19.0781C7.45182 19.0781 5.27474 18.1875 3.46875 16.4062C1.6875 14.6003 0.796875 12.4232 0.796875 9.875C0.796875 7.32682 1.6875 5.16211 3.46875 3.38086ZM14.5273 12.2871L12.0781 9.875L14.5273 7.46289C14.7253 7.24023 14.7253 7.02995 14.5273 6.83203L13.043 5.34766C12.8451 5.14974 12.6348 5.14974 12.4121 5.34766L10 7.79688L7.58789 5.34766C7.36523 5.14974 7.15495 5.14974 6.95703 5.34766L5.47266 6.83203C5.27474 7.02995 5.27474 7.24023 5.47266 7.46289L7.92188 9.875L5.47266 12.2871C5.27474 12.5098 5.27474 12.7201 5.47266 12.918L6.95703 14.4023C7.15495 14.6003 7.36523 14.6003 7.58789 14.4023L10 11.9531L12.4121 14.4023C12.6348 14.6003 12.8451 14.6003 13.043 14.4023L14.5273 12.918C14.7253 12.7201 14.7253 12.5098 14.5273 12.2871Z" fill="#282828"/>
</svg>
