<svg width="8" height="5" viewBox="0 0 8 5" fill="none" xmlns="http://www.w3.org/2000/svg">
<path d="M3.625 4.75L0.4375 1.5625C0.328125 1.45312 0.273438 1.32031 0.273438 1.16406C0.273438 1.00781 0.328125 0.875 0.4375 0.765625L0.976562 0.25C1.08594 0.140625 1.21875 0.0859375 1.375 0.0859375C1.53125 0.0859375 1.66406 0.140625 1.77344 0.25L4.02344 2.5L6.27344 0.25C6.38281 0.140625 6.51562 0.0859375 6.67188 0.0859375C6.82812 0.0859375 6.96094 0.140625 7.07031 0.25L7.60938 0.765625C7.71875 0.875 7.77344 1.00781 7.77344 1.16406C7.77344 1.32031 7.71875 1.45312 7.60938 1.5625L4.42188 4.75C4.3125 4.85938 4.17969 4.91406 4.02344 4.91406C3.86719 4.91406 3.73438 4.85938 3.625 4.75Z" fill="#CCCCCC"/>
</svg>
