<svg width="22" height="17" viewBox="0 0 22 17" fill="none" xmlns="http://www.w3.org/2000/svg">
<path d="M21.125 6.84375V7.40625C21.125 7.64062 21.043 7.83984 20.8789 8.00391C20.7148 8.16797 20.5156 8.25 20.2812 8.25H20L19.0859 14.6836C19.0391 14.9414 18.9336 15.1758 18.7695 15.3867C18.6289 15.6211 18.4297 15.7969 18.1719 15.9141C17.9375 16.0547 17.6797 16.125 17.3984 16.125H4.60156C4.17969 16.125 3.80469 15.9844 3.47656 15.7031C3.17188 15.4453 2.98438 15.1055 2.91406 14.6836L2 8.25H1.71875C1.48438 8.25 1.28516 8.16797 1.12109 8.00391C0.957031 7.83984 0.875 7.64062 0.875 7.40625V6.84375C0.875 6.60938 0.957031 6.41016 1.12109 6.24609C1.28516 6.08203 1.48438 6 1.71875 6H4.07422L7.83594 0.832031C8.02344 0.574219 8.26953 0.421875 8.57422 0.375C8.87891 0.328125 9.16016 0.398438 9.41797 0.585938C9.67578 0.773438 9.82812 1.01953 9.875 1.32422C9.92188 1.62891 9.85156 1.91016 9.66406 2.16797L6.85156 6H15.1484L12.3359 2.16797C12.1484 1.91016 12.0781 1.62891 12.125 1.32422C12.1719 1.01953 12.3242 0.773438 12.582 0.585938C12.8398 0.398438 13.1211 0.328125 13.4258 0.375C13.7305 0.421875 13.9766 0.574219 14.1641 0.832031L17.9258 6H20.2812C20.5156 6 20.7148 6.08203 20.8789 6.24609C21.043 6.41016 21.125 6.60938 21.125 6.84375ZM11.8438 13.0312V9.09375C11.8438 8.85938 11.7617 8.66016 11.5977 8.49609C11.4336 8.33203 11.2344 8.25 11 8.25C10.7656 8.25 10.5664 8.33203 10.4023 8.49609C10.2383 8.66016 10.1562 8.85938 10.1562 9.09375V13.0312C10.1562 13.2656 10.2383 13.4648 10.4023 13.6289C10.5664 13.793 10.7656 13.875 11 13.875C11.2344 13.875 11.4336 13.793 11.5977 13.6289C11.7617 13.4648 11.8438 13.2656 11.8438 13.0312ZM15.7812 13.0312V9.09375C15.7812 8.85938 15.6992 8.66016 15.5352 8.49609C15.3711 8.33203 15.1719 8.25 14.9375 8.25C14.7031 8.25 14.5039 8.33203 14.3398 8.49609C14.1758 8.66016 14.0938 8.85938 14.0938 9.09375V13.0312C14.0938 13.2656 14.1758 13.4648 14.3398 13.6289C14.5039 13.793 14.7031 13.875 14.9375 13.875C15.1719 13.875 15.3711 13.793 15.5352 13.6289C15.6992 13.4648 15.7812 13.2656 15.7812 13.0312ZM7.90625 13.0312V9.09375C7.90625 8.85938 7.82422 8.66016 7.66016 8.49609C7.49609 8.33203 7.29688 8.25 7.0625 8.25C6.82812 8.25 6.62891 8.33203 6.46484 8.49609C6.30078 8.66016 6.21875 8.85938 6.21875 9.09375V13.0312C6.21875 13.2656 6.30078 13.4648 6.46484 13.6289C6.62891 13.793 6.82812 13.875 7.0625 13.875C7.29688 13.875 7.49609 13.793 7.66016 13.6289C7.82422 13.4648 7.90625 13.2656 7.90625 13.0312Z" fill="#282828"/>
</svg>
