<svg width="19" height="17" viewBox="0 0 19 17" fill="none" xmlns="http://www.w3.org/2000/svg">
<path d="M16.2773 1.46484C17.3789 2.40234 17.9648 3.59766 18.0352 5.05078C18.1055 6.50391 17.6367 7.73438 16.6289 8.74219L9.84375 15.7734C9.60938 16.0078 9.33984 16.125 9.03516 16.125C8.73047 16.125 8.46094 16.0078 8.22656 15.7734L1.44141 8.74219C0.433594 7.73438 -0.0351562 6.50391 0.0351562 5.05078C0.105469 3.59766 0.691406 2.40234 1.79297 1.46484C2.75391 0.644531 3.85547 0.292969 5.09766 0.410156C6.36328 0.503906 7.44141 1.00781 8.33203 1.92188L9.03516 2.625L9.73828 1.92188C10.6289 1.00781 11.6953 0.503906 12.9375 0.410156C14.2031 0.292969 15.3164 0.644531 16.2773 1.46484Z" fill="#282828"/>
</svg>
