<svg width="12" height="13" viewBox="0 0 12 13" fill="none" xmlns="http://www.w3.org/2000/svg">
<path d="M11.8359 10.8828C11.9453 10.9922 12 11.125 12 11.2812C12 11.4375 11.9453 11.5703 11.8359 11.6797L11.1797 12.3359C11.0703 12.4453 10.9375 12.5 10.7812 12.5C10.625 12.5 10.4922 12.4453 10.3828 12.3359L8.03906 9.99219C7.92969 9.88281 7.875 9.75 7.875 9.59375V9.21875C7 9.90625 6 10.25 4.875 10.25C3.53125 10.25 2.38281 9.77344 1.42969 8.82031C0.476562 7.86719 0 6.71875 0 5.375C0 4.03125 0.476562 2.88281 1.42969 1.92969C2.38281 0.976562 3.53125 0.5 4.875 0.5C6.21875 0.5 7.36719 0.976562 8.32031 1.92969C9.27344 2.88281 9.75 4.03125 9.75 5.375C9.75 6.5 9.40625 7.5 8.71875 8.375H9.09375C9.25 8.375 9.38281 8.42969 9.49219 8.53906L11.8359 10.8828ZM2.74219 7.50781C3.33594 8.08594 4.04688 8.375 4.875 8.375C5.70312 8.375 6.40625 8.08594 6.98438 7.50781C7.57812 6.91406 7.875 6.20312 7.875 5.375C7.875 4.54688 7.57812 3.84375 6.98438 3.26562C6.40625 2.67188 5.70312 2.375 4.875 2.375C4.04688 2.375 3.33594 2.67188 2.74219 3.26562C2.16406 3.84375 1.875 4.54688 1.875 5.375C1.875 6.20312 2.16406 6.91406 2.74219 7.50781Z" fill="white"/>
</svg>
