<svg height="32" viewBox="0 0 108 32" width="108" xmlns="http://www.w3.org/2000/svg"><path d="m104 0h-100c-2.2 0-4 1.8-4 4v24c0 2.2 1.8 4 4 4h100c2.2 0 4-1.8 4-4v-24c0-2.2-1.8-4-4-4zm3.36 28c0 1.8524-1.508 3.36-3.36 3.36h-100c-1.85244 0-3.36-1.5076-3.36-3.36v-24c0-1.85244 1.50756-3.36 3.36-3.36h100c1.852 0 3.36 1.50756 3.36 3.36z" fill="#333"/><g fill="#00e3ff"><path d="m8.34845 6.03027c-.23289.24623-.37067.62845-.37067 1.12445v17.69248c0 .496.13778.8773.37067 1.1235l9.97065-9.9706z"/><path d="m8.40706 5.97266-.05867.05777c.01955-.02044.04711-.02933.06756-.04888z"/><path d="m8.40794 26.0285.00889-.0089c-.02133-.0187-.04889-.0276-.06844-.0489z"/></g><path d="m25.6124 14.8466-3.9146-2.224h-.0009l-3.3778 3.3777 3.3778 3.3796-.0756.0435.0756-.0426 3.9146-2.224c1.1191-.6356 1.1191-1.6747.0009-2.3102z" fill="#ffe000"/><path d="m18.3191 16.0005-9.97071 9.9707c.01955.0213.04711.0302.06844.0488.37334.3343.94489.3689 1.59377 0l11.6116-6.5964.0755-.0436z" fill="#ff3a44"/><path d="m18.3191 16.0012 3.3777-3.3787.0009-.0009-11.6871-6.64c-.64888-.36889-1.22221-.33422-1.59466 0-.02044.01956-.048.02844-.06755.04889z" fill="#00f076"/><g fill="#333"><path d="m47.0578 17.4008c-1.8818 0-3.4151 1.4302-3.4151 3.4027 0 1.9591 1.5333 3.4027 3.4151 3.4027s3.4151-1.4436 3.4151-3.4027c0-1.9716-1.5333-3.4027-3.4151-3.4027zm0 5.4649c-1.0311 0-1.92-.8507-1.92-2.0622 0-1.224.8889-2.0622 1.92-2.0622s1.92.8373 1.92 2.0622c.0009 1.2115-.8889 2.0622-1.92 2.0622z"/><path d="m54.5085 17.4008c-1.8817 0-3.4151 1.4302-3.4151 3.4027 0 1.9591 1.5334 3.4027 3.4151 3.4027 1.8818 0 3.4151-1.4436 3.4151-3.4027.0009-1.9716-1.5333-3.4027-3.4151-3.4027zm0 5.4649c-1.0311 0-1.92-.8507-1.92-2.0622 0-1.224.8898-2.0622 1.92-2.0622 1.0303 0 1.92.8373 1.92 2.0622.0009 1.2115-.8889 2.0622-1.92 2.0622z"/><path d="m87.0418 13.999h-1.4924v10.0009h1.4924z"/><path d="m38.1948 18.4461v1.4427h3.4542c-.1031.8116-.3733 1.4044-.7867 1.8169-.5022.5022-1.2888 1.0569-2.6675 1.0569-2.1262 0-3.7893-1.7138-3.7893-3.8409s1.6622-3.8409 3.7893-3.8409c1.1475 0 1.9849.4516 2.6035 1.0311l1.0178-1.0178c-.8631-.8249-2.0106-1.456-3.6213-1.456-2.9129 0-5.3618 2.3716-5.3618 5.2845s2.4489 5.2844 5.3618 5.2844c1.5724 0 2.7582-.5155 3.6862-1.4818.9538-.9537 1.2507-2.2942 1.2507-3.3768 0-.3352-.0258-.6445-.0774-.9023z"/><path d="m90.7087 17.383c-1.0809 0-2.2.4765-2.6631 1.5316l1.3253.5529c.2827-.5529.8106-.7334 1.3635-.7334.7716 0 1.5565.4632 1.5698 1.2863v.1031c-.2702-.1547-.8489-.3858-1.5564-.3858-1.4285 0-2.8818.7849-2.8818 2.2516 0 1.3377 1.1707 2.2 2.4835 2.2 1.0036 0 1.5565-.4507 1.9041-.9778h.0515v.7715h1.4409v-3.8346c-.0009-1.7751-1.3262-2.7654-3.0373-2.7654zm-.1805 5.4809c-.4889 0-1.1706-.2444-1.1706-.8489 0-.7715.8488-1.0675 1.5822-1.0675.656 0 .9653.1413 1.3635.3342-.1146.9262-.9129 1.5822-1.7751 1.5822z"/><path d="m97.2837 21.9377h-.0515l-1.7751-4.336h-1.608l2.6631 6.0604-1.5182 3.3707h1.5564l4.1046-9.4311h-1.6602z"/><path d="m63.6553 18.1617h-.0524c-.3351-.3991-.9796-.76-1.7911-.76-1.7014 0-3.2605 1.4951-3.2605 3.4151 0 1.9076 1.5591 3.3893 3.2605 3.3893.8115 0 1.456-.3609 1.7911-.7733h.0515v.4898c0 1.3013-.696 1.9973-1.8169 1.9973-.9146 0-1.4817-.6569-1.7137-1.2115l-1.3014.5413c.3734.9022 1.3663 2.0107 3.016 2.0107 1.7529 0 3.2347-1.0312 3.2347-3.544v-6.1094h-1.4178zm-1.7155 4.704c-1.0311 0-1.8943-.8631-1.8943-2.0489 0-1.1982.864-2.0747 1.8943-2.0747 1.0177 0 1.8169.8765 1.8169 2.0747.0008 1.1858-.7983 2.0489-1.8169 2.0489z"/><path d="m81.4446 13.999h-3.5769v10.0009h1.4925v-3.7893h2.0844c1.6551 0 3.2809-1.1982 3.2809-3.1058s-1.6258-3.1058-3.2809-3.1058zm.0391 4.8196h-2.1235v-3.4285h2.1226c1.1165 0 1.7503.9245 1.7503 1.7138 0 .776-.6338 1.7147-1.7494 1.7147z"/><path d="m67.5983 13.999h-1.4951v10.0009h1.4951z"/><path d="m74.442 19.5662c-.2836-.76-1.1467-2.1654-2.9129-2.1654-1.7529 0-3.2089 1.3787-3.2089 3.4027 0 1.9075 1.4436 3.4027 3.3769 3.4027 1.5591 0 2.4613-.9538 2.8355-1.5076l-1.16-.7733c-.3866.5671-.9146.9404-1.6755.9404s-1.3013-.3484-1.6498-1.0311l4.5493-1.8818zm-4.64 1.1342c-.0391-1.3147 1.0178-1.9849 1.7786-1.9849.5929 0 1.096.296 1.2632.7218z"/><path d="m34.7842 11.3164c.3867.2515.8889.3769 1.5058.3769.5964 0 1.1004-.1627 1.5137-.4898.4134-.3271.6987-.8018.8578-1.42402l-.7582-.19111c-.104.48183-.3022.84443-.5964 1.08893-.2943.2444-.6534.3671-1.0783.3671-.3484 0-.6729-.0898-.9724-.2694-.2996-.1795-.52-.4515-.6622-.81418-.1414-.36356-.2125-.78845-.2125-1.27556 0-.37778.0596-.74489.1796-1.09955.12-.35556.3271-.63911.6231-.84978.2951-.21067.6631-.31645 1.1031-.31645.3822 0 .7004.09512.9529.28534.2524.19022.4453.49333.5778.91022l.7457-.176c-.1528-.528-.4257-.93867-.816-1.23022-.3902-.29156-.872-.43734-1.4453-.43734-.5058 0-.9689.11467-1.3893.34578-.4205.23022-.7449.568-.9725 1.01156-.2284.44444-.3422.96444-.3422 1.56089 0 .54666.1005 1.05866.3031 1.53509.2009.4765.4951.8409.8827 1.0916z"/><path d="m40.2037 9.67814c.1582 0 .2951.04089.4097.12267.1147.08266.2489.25249.4027.51019l.7511 1.2854h.7733l-.7697-1.2854c-.2916-.48175-.5885-.76264-.8907-.84353.1849-.08622.3209-.18133.4098-.28533s.1866-.29156.2933-.56267c.112-.28355.1947-.45422.248-.51111.0525-.05422.1707-.08178.3556-.08178l.1955.00356v-.58222h-.1404c-.2471 0-.4267.01866-.5387.05511-.112.03644-.2107.10666-.2969.21066s-.1982.32-.336.648c-.1742.41423-.3058.664-.3964.75023-.0889.08622-.2462.12889-.4702.12889v-1.79289h-.7032v4.14848h.7032z"/><path d="m45.1353 11.5527c.2409-.0906.4915-.2471.752-.4684.0213.1955.0684.3662.1404.5129h.7343c-.088-.1591-.1476-.3254-.1778-.4987-.0294-.1724-.0445-.5867-.0445-1.23999v-.93777c0-.312-.0124-.528-.0355-.648-.0418-.19289-.1147-.35201-.2187-.47912-.104-.12622-.2667-.23111-.488-.31466-.2213-.08356-.5093-.12534-.8631-.12534-.3564 0-.6702.04889-.9413.14667s-.4783.23733-.6214.41778c-.1431.18133-.2462.41867-.3084.71289l.6862.09422c.0756-.29422.192-.49867.3493-.61511.1574-.11645.4018-.17422.7325-.17422.3547 0 .6213.07911.8009.23822.1324.11733.1991.31911.1991.60533 0 .02667-.0009.088-.0036.184-.2684.09333-.6862.17422-1.2542.24178-.2782.03378-.4871.06933-.6249.10578-.1875.05155-.3564.12889-.5058.23022-.1493.10133-.2702.23644-.3626.40444-.0925.16708-.1387.35288-.1387.55648 0 .3466.1227.6311.3671.8533.2445.2231.5947.3342 1.0507.3342.2764 0 .5351-.0453.776-.1369zm-1.4427-1.0702c0-.1218.0329-.2338.0978-.3333.0649-.0996.1573-.17691.2773-.22846.12-.05156.3245-.09867.6134-.14045.5093-.07289.8924-.16178 1.1475-.26578v.25689c0 .3102-.0373.544-.1129.7031-.0986.2053-.2542.3671-.4649.4862-.2106.1191-.4515.1778-.7226.1778-.2729 0-.4818-.0631-.6231-.1875-.1414-.1245-.2125-.2809-.2125-.4685z"/><path d="m49.8605 9.32703c-.4213.14044-.7653.21066-1.0311.21066-.2311 0-.424-.05688-.5778-.16977-.1538-.11378-.2515-.24623-.2915-.39823-.0409-.15288-.0605-.39822-.0605-.73688v-.78489h-.7031v1.08533c0 .27911.0427.53422.1289.76622s.2498.42756.4907.58756c.2408.16087.5191.24087.8337.24087.3751 0 .7787-.0684 1.2107-.20354v1.67204h.7031v-4.14848h-.7031z"/><path d="m53.0151 9.20518c-.2782.03378-.4871.06933-.6249.10578-.1875.05155-.3564.12889-.5057.23022-.1494.10133-.2702.23644-.3627.40444-.0924.16708-.1387.35288-.1387.55648 0 .3466.1227.6311.3672.8533.2444.2231.5946.3342 1.0506.3342.2765 0 .5351-.0453.776-.1369.2409-.0906.4916-.2471.752-.4684.0205.1955.0676.3662.1405.5129h.7342c-.088-.1591-.1476-.3254-.1778-.4987-.0293-.1724-.0444-.5867-.0444-1.23999v-.93777c0-.312-.0125-.528-.0356-.648-.0418-.19289-.1147-.35201-.2187-.47912-.104-.12622-.2666-.23111-.488-.31466-.2213-.08356-.5093-.12534-.8631-.12534-.3564 0-.6702.04889-.9413.14667s-.4782.23733-.6213.41778c-.1431.18133-.2463.41867-.3085.71289l.6862.09422c.0756-.29422.192-.49867.3494-.61511.1573-.11645.4017-.17422.7324-.17422.3547 0 .6213.07911.8009.23822.1324.11733.1991.31911.1991.60533 0 .02667-.0009.088-.0035.184-.2685.09333-.6863.17422-1.2543.24178zm1.2543.56622c0 .3102-.0374.544-.1129.7031-.0987.2053-.2543.3671-.4649.4862-.2107.1191-.4516.1778-.7227.1778-.2729 0-.4818-.0631-.6231-.1875-.1413-.1245-.2124-.2809-.2124-.4685 0-.1218.0328-.2338.0977-.3333.0649-.0996.1574-.17691.2774-.22846.12-.05156.3244-.09867.6133-.14045.5093-.07289.8925-.16178 1.1476-.26578z"/><path d="m56.8526 11.5964h.6996v-3.56626h1.3351v-.58222h-3.3707v.58222h1.336z"/><path d="m62.5619 11.2275c.2613-.2463.392-.5423.392-.8889 0-.39557-.1565-.70668-.4703-.93157-.3146-.22489-.7617-.33778-1.3422-.33778h-.8907v-1.62133h-.7031v4.14848h1.7583c.5751 0 .9937-.1236 1.256-.3689zm-2.3112-.2098-.0008-1.36801h.832c.4817 0 .7937.06934.9342.21067.1404.14134.2106.30134.2106.48084 0 .232-.0951.4027-.2853.512-.1902.1094-.5067.1645-.9529.1645z"/><path d="m69.3601 10.4364c0-.2445-.064-.45604-.1938-.63471-.1289-.17866-.2906-.30044-.4862-.36533.1644-.09955.2871-.22222.3689-.36978.0827-.14666.1236-.31911.1236-.51733 0-.24711-.0694-.45956-.2089-.63644-.1396-.17778-.3058-.29956-.5005-.36534-.1938-.06666-.4906-.09955-.888-.09955h-1.6213v4.14848h1.8711c.4862 0 .8578-.096 1.1129-.2854.2551-.1893.3964-.4817.4222-.8746zm-2.704-2.40626h.7733c.3752 0 .64.04267.7956.12889.1547.08622.232.23822.232.45689 0 .13244-.0436.24711-.1316.34133-.0897.09511-.1893.15822-.3013.18933s-.3173.04711-.6169.04711h-.7502zm1.7476 2.84886c-.1494.0925-.4223.1387-.8214.1387h-.9253v-1.24534h.8515c.3049 0 .5263.01511.6641.04445.1377.03022.2497.10133.3359.21509.0863.1129.1298.2365.1298.3689-.0089.2267-.0871.3858-.2346.4782z"/></g></svg>