<svg viewBox="0 0 121.5 36" xmlns="http://www.w3.org/2000/svg"><g fill="#333"><path d="m117.18 0h-112.92a4.26 4.26 0 0 0 -4.26 4.25v27.49a4.27 4.27 0 0 0 4.26 4.26h112.92a4.32 4.32 0 0 0 4.32-4.26v-27.49a4.32 4.32 0 0 0 -4.32-4.25zm0 35.19h-112.92a3.45 3.45 0 0 1 -3.46-3.45v-27.49a3.45 3.45 0 0 1 3.46-3.45h112.92a3.45 3.45 0 0 1 3.45 3.45v27.49a3.45 3.45 0 0 1 -3.45 3.45z"/><path d="m27.11 17.81a5.22 5.22 0 0 1 2.49-4.38 5.34 5.34 0 0 0 -4.21-2.27c-1.77-.16-3.48 1.05-4.39 1.05s-2.31-1-3.81-1a5.6 5.6 0 0 0 -4.72 2.88c-2 3.53-.52 8.72 1.44 11.57 1 1.4 2.12 3 3.61 2.9s2-.93 3.77-.93 2.26.93 3.79.9 2.56-1.4 3.5-2.81a11.56 11.56 0 0 0 1.6-3.26 5 5 0 0 1 -3.07-4.65z"/><path d="m24.24 9.27a5.13 5.13 0 0 0 1.17-3.68 5.23 5.23 0 0 0 -3.41 1.75 4.89 4.89 0 0 0 -1.21 3.54 4.32 4.32 0 0 0 3.45-1.61z"/><path d="m48.28 28.35h-2l-1.12-3.52h-3.93l-1.07 3.52h-2l3.86-12h2.38zm-3.5-5-1-3.13q-.16-.48-.6-2.26-.18.76-.57 2.26l-1 3.13z"/><path d="m58.2 23.93a4.91 4.91 0 0 1 -1.2 3.48 3.48 3.48 0 0 1 -2.65 1.14 2.65 2.65 0 0 1 -2.45-1.23v4.55h-1.9v-9.31q0-1.38-.07-2.84h1.69l.11 1.37a3.41 3.41 0 0 1 5.46-.34 4.76 4.76 0 0 1 1.01 3.18zm-2 .07a3.55 3.55 0 0 0 -.57-2.08 2 2 0 0 0 -1.63-.85 2 2 0 0 0 -1.29.47 2.18 2.18 0 0 0 -.71 1.23 2.54 2.54 0 0 0 -.09.58v1.45a2.31 2.31 0 0 0 .58 1.59 1.92 1.92 0 0 0 1.5.65 2 2 0 0 0 1.69-.83 3.69 3.69 0 0 0 .56-2.21z"/><path d="m68.13 23.93a4.9 4.9 0 0 1 -1.19 3.48 3.48 3.48 0 0 1 -2.65 1.14 2.65 2.65 0 0 1 -2.45-1.23v4.55h-1.96v-9.31q0-1.38-.07-2.84h1.69l.11 1.37a3.42 3.42 0 0 1 5.47-.34 4.77 4.77 0 0 1 1.05 3.18zm-2 .07a3.55 3.55 0 0 0 -.57-2.08 2 2 0 0 0 -1.67-.85 2 2 0 0 0 -1.29.47 2.18 2.18 0 0 0 -.75 1.24 2.54 2.54 0 0 0 -.09.58v1.44a2.32 2.32 0 0 0 .58 1.59 1.92 1.92 0 0 0 1.5.65 2 2 0 0 0 1.69-.83 3.67 3.67 0 0 0 .64-2.21z"/><path d="m79.24 25a3.19 3.19 0 0 1 -1.06 2.49 4.72 4.72 0 0 1 -3.26 1 5.71 5.71 0 0 1 -3.1-.75l.44-1.6a5.26 5.26 0 0 0 2.74.86 2.62 2.62 0 0 0 1.69-.49 1.6 1.6 0 0 0 .6-1.31 1.67 1.67 0 0 0 -.5-1.23 4.62 4.62 0 0 0 -1.62-.97q-3.17-1.17-3.17-3.44a3 3 0 0 1 1.1-2.42 4.35 4.35 0 0 1 2.93-.94 5.81 5.81 0 0 1 2.72.57l-.48 1.56a4.72 4.72 0 0 0 -2.27-.55 2.32 2.32 0 0 0 -1.58.5 1.42 1.42 0 0 0 -.48 1.08 1.47 1.47 0 0 0 .55 1.17 6.23 6.23 0 0 0 1.74.92 5.92 5.92 0 0 1 2.27 1.46 3 3 0 0 1 .74 2.09z"/><path d="m85.58 21.16h-2.12v4.19q0 1.6 1.12 1.6a3.43 3.43 0 0 0 .85-.09l.05 1.46a4.36 4.36 0 0 1 -1.49.21 2.3 2.3 0 0 1 -1.78-.69 3.4 3.4 0 0 1 -.64-2.33v-4.36h-1.25v-1.44h1.26v-1.58l1.89-.57v2.15h2.11z"/><path d="m95.12 24a4.74 4.74 0 0 1 -1.12 3.23 4.06 4.06 0 0 1 -3.16 1.32 3.86 3.86 0 0 1 -3-1.26 4.6 4.6 0 0 1 -1.13-3.18 4.69 4.69 0 0 1 1.16-3.29 4 4 0 0 1 3.13-1.28 3.94 3.94 0 0 1 3 1.26 4.54 4.54 0 0 1 1.12 3.2zm-2 .06a3.88 3.88 0 0 0 -.51-2 1.9 1.9 0 0 0 -1.72-1 1.93 1.93 0 0 0 -1.76 1 4 4 0 0 0 -.51 2.08 3.87 3.87 0 0 0 .51 2 2 2 0 0 0 3.46 0 3.88 3.88 0 0 0 .54-2.14z"/><path d="m101.36 21.41a3.34 3.34 0 0 0 -.61-.05 1.81 1.81 0 0 0 -1.56.76 2.87 2.87 0 0 0 -.48 1.7v4.53h-1.92v-5.92q0-1.49-.07-2.72h1.67l.07 1.65h.05a3 3 0 0 1 1-1.37 2.32 2.32 0 0 1 1.39-.46 3.15 3.15 0 0 1 .48 0z"/><path d="m109.94 23.63a4.47 4.47 0 0 1 -.07.87h-5.76a2.51 2.51 0 0 0 .83 2 2.85 2.85 0 0 0 1.88.6 6.36 6.36 0 0 0 2.33-.41l.3 1.33a7.21 7.21 0 0 1 -2.89.53 4.19 4.19 0 0 1 -3.15-1.18 4.37 4.37 0 0 1 -1.15-3.17 5 5 0 0 1 1.07-3.25 3.68 3.68 0 0 1 3-1.39 3.22 3.22 0 0 1 2.83 1.39 4.68 4.68 0 0 1 .78 2.68zm-1.83-.5a2.6 2.6 0 0 0 -.37-1.48 1.67 1.67 0 0 0 -1.53-.8 1.82 1.82 0 0 0 -1.53.78 2.87 2.87 0 0 0 -.57 1.49z"/><path d="m39.72 10.93.81-.21a2.08 2.08 0 0 0 .49.94 1.33 1.33 0 0 0 1.07.47 1.55 1.55 0 0 0 1.07-.35 1.08 1.08 0 0 0 .39-.84 1 1 0 0 0 -.41-.85 1.82 1.82 0 0 0 -1.14-.31h-.4v-.78a4.46 4.46 0 0 0 .9 0 1 1 0 0 0 .55-.35 1 1 0 0 0 .24-.65 1 1 0 0 0 -.29-.74 1.23 1.23 0 0 0 -.89-.31 1.41 1.41 0 0 0 -.83.24 1.25 1.25 0 0 0 -.48.65 2.15 2.15 0 0 0 -.13.6l-.82-.18a2.31 2.31 0 0 1 3.77-1.53 1.64 1.64 0 0 1 .52 1.27 1.54 1.54 0 0 1 -.85 1.4 1.59 1.59 0 0 1 1.16 1.56 1.77 1.77 0 0 1 -.64 1.39 2.51 2.51 0 0 1 -1.71.56 2.32 2.32 0 0 1 -2.38-1.98z"/><path d="m48.45 12.17a3 3 0 0 1 -.85.53 2.45 2.45 0 0 1 -.87.15 1.69 1.69 0 0 1 -1.18-.38 1.24 1.24 0 0 1 -.41-1 1.3 1.3 0 0 1 .56-1.08 1.92 1.92 0 0 1 .57-.26 5.65 5.65 0 0 1 .7-.12 7.23 7.23 0 0 0 1.41-.27q0-.16 0-.21a.87.87 0 0 0 -.22-.68 1.32 1.32 0 0 0 -.9-.27 1.4 1.4 0 0 0 -.82.2 1.19 1.19 0 0 0 -.39.69l-.77-.11a1.92 1.92 0 0 1 .35-.8 1.52 1.52 0 0 1 .7-.47 3.1 3.1 0 0 1 1.05-.09 2.8 2.8 0 0 1 1 .14 1.28 1.28 0 0 1 .55.35 1.25 1.25 0 0 1 .25.54 4.45 4.45 0 0 1 0 .73v1.05a11.2 11.2 0 0 0 .05 1.4 1.76 1.76 0 0 0 .2.56h-.83a1.68 1.68 0 0 1 -.15-.6zm-.07-1.77a5.8 5.8 0 0 1 -1.29.3 3 3 0 0 0 -.69.16.69.69 0 0 0 -.31.26.7.7 0 0 0 .13.9 1 1 0 0 0 .7.21 1.63 1.63 0 0 0 .81-.2 1.23 1.23 0 0 0 .52-.55 1.91 1.91 0 0 0 .13-.79z"/><path d="m50.41 8.08h1.82a3.29 3.29 0 0 1 1 .11 1.2 1.2 0 0 1 .56.41 1.12 1.12 0 0 1 .24.72 1.17 1.17 0 0 1 -.14.58 1.12 1.12 0 0 1 -.42.42 1.09 1.09 0 0 1 .55.41 1.19 1.19 0 0 1 .22.71 1.26 1.26 0 0 1 -.47 1 2.07 2.07 0 0 1 -1.25.32h-2.1zm.79 2h.8a3 3 0 0 0 .69-.05.72.72 0 0 0 .34-.21.54.54 0 0 0 .15-.38.54.54 0 0 0 -.18-.56 2 2 0 0 0 -.89-.15h-.87zm0 2.05h1a1.89 1.89 0 0 0 .92-.16.61.61 0 0 0 .26-.54.67.67 0 0 0 -.15-.42.63.63 0 0 0 -.38-.24 4 4 0 0 0 -.75-.05h-1z"/><path d="m58.14 12.17a3 3 0 0 1 -.85.53 2.45 2.45 0 0 1 -.87.15 1.69 1.69 0 0 1 -1.18-.38 1.24 1.24 0 0 1 -.41-1 1.3 1.3 0 0 1 .56-1.08 1.92 1.92 0 0 1 .57-.26 5.65 5.65 0 0 1 .7-.12 7.23 7.23 0 0 0 1.41-.27q0-.16 0-.21a.87.87 0 0 0 -.22-.68 1.32 1.32 0 0 0 -.9-.27 1.4 1.4 0 0 0 -.82.2 1.19 1.19 0 0 0 -.39.69l-.74-.06a1.92 1.92 0 0 1 .35-.8 1.52 1.52 0 0 1 .7-.47 3.1 3.1 0 0 1 1.01-.14 2.8 2.8 0 0 1 1 .14 1.28 1.28 0 0 1 .55.35 1.25 1.25 0 0 1 .25.54 4.45 4.45 0 0 1 0 .73v1.05a11.2 11.2 0 0 0 .05 1.4 1.76 1.76 0 0 0 .2.56h-.83a1.68 1.68 0 0 1 -.14-.6zm-.07-1.77a5.8 5.8 0 0 1 -1.29.3 3 3 0 0 0 -.69.16.69.69 0 0 0 -.31.26.7.7 0 0 0 .13.9 1 1 0 0 0 .7.21 1.63 1.63 0 0 0 .81-.2 1.23 1.23 0 0 0 .52-.55 1.91 1.91 0 0 0 .13-.79z"/><path d="m60.1 8.08h.79v1.92h2.19v-1.92h.79v4.67h-.79v-2.07h-2.19v2.07h-.79z"/><path d="m64.64 8.08h3.79v.65h-1.5v4h-.79v-4h-1.5z"/><path d="m72.13 12.17a3 3 0 0 1 -.85.53 2.45 2.45 0 0 1 -.87.15 1.69 1.69 0 0 1 -1.18-.38 1.24 1.24 0 0 1 -.41-1 1.27 1.27 0 0 1 .16-.63 1.29 1.29 0 0 1 .41-.46 1.93 1.93 0 0 1 .57-.26 5.65 5.65 0 0 1 .7-.12 7.22 7.22 0 0 0 1.41-.27c0-.11 0-.18 0-.21a.88.88 0 0 0 -.22-.68 1.33 1.33 0 0 0 -.9-.27 1.4 1.4 0 0 0 -.82.2 1.2 1.2 0 0 0 -.39.69l-.74-.05a1.92 1.92 0 0 1 .35-.8 1.52 1.52 0 0 1 .7-.47 3.1 3.1 0 0 1 1.01-.14 2.8 2.8 0 0 1 1 .14 1.29 1.29 0 0 1 .55.35 1.25 1.25 0 0 1 .25.54 4.44 4.44 0 0 1 0 .73v1.05a11.35 11.35 0 0 0 0 1.4 1.77 1.77 0 0 0 .2.56h-.83a1.68 1.68 0 0 1 -.1-.6zm-.07-1.77a5.81 5.81 0 0 1 -1.29.3 3 3 0 0 0 -.69.16.68.68 0 0 0 -.31.26.67.67 0 0 0 -.11.38.67.67 0 0 0 .24.53 1 1 0 0 0 .7.21 1.63 1.63 0 0 0 .81-.2 1.23 1.23 0 0 0 .52-.55 1.91 1.91 0 0 0 .13-.79z"/><path d="m76.91 8.08v2a.77.77 0 0 0 .53-.15 3.1 3.1 0 0 0 .45-.84 2.41 2.41 0 0 1 .5-.85 1.06 1.06 0 0 1 .69-.18h.29v.65h-.22a.59.59 0 0 0 -.4.09 2.32 2.32 0 0 0 -.28.58 2.34 2.34 0 0 1 -.33.63 1.33 1.33 0 0 1 -.47.32 1.89 1.89 0 0 1 1 .95l.87 1.45h-.87l-.85-1.45a1.92 1.92 0 0 0 -.45-.58.78.78 0 0 0 -.46-.14v2.16h-.81v-2.13a.78.78 0 0 0 -.46.13 1.88 1.88 0 0 0 -.45.58l-.85 1.45h-.87l.87-1.45a1.91 1.91 0 0 1 1-.95 1.25 1.25 0 0 1 -.49-.35 4.94 4.94 0 0 1 -.42-.91.56.56 0 0 0 -.21-.3.78.78 0 0 0 -.34-.06h-.23v-.65h.11a2.62 2.62 0 0 1 .64.05.69.69 0 0 1 .33.23 3.41 3.41 0 0 1 .38.74 3.2 3.2 0 0 0 .44.84.75.75 0 0 0 .53.15v-2z"/><path d="m80.11 8.08h.79v3.56l2.2-3.56h.85v4.67h-.79v-3.54l-2.16 3.54h-.85z"/><path d="m84.71 8.08h3.79v.65h-1.5v4h-.79v-4h-1.5z"/><path d="m89.26 8.08h.79v3.56l2.19-3.56h.85v4.67h-.79v-3.54l-2.19 3.54h-.85z"/><path d="m96.79 8.08h1.82a3.29 3.29 0 0 1 1 .11 1.2 1.2 0 0 1 .56.41 1.12 1.12 0 0 1 .24.72 1.17 1.17 0 0 1 -.14.58 1.12 1.12 0 0 1 -.42.42 1.09 1.09 0 0 1 .55.41 1.19 1.19 0 0 1 .22.71 1.26 1.26 0 0 1 -.47 1 2.07 2.07 0 0 1 -1.25.32h-2.11zm.79 2h.84a3 3 0 0 0 .69-.05.73.73 0 0 0 .34-.21.55.55 0 0 0 .15-.38.54.54 0 0 0 -.26-.51 2 2 0 0 0 -.89-.15h-.87zm0 2.05h1a1.9 1.9 0 0 0 .92-.16.61.61 0 0 0 .26-.54.67.67 0 0 0 -.15-.42.63.63 0 0 0 -.38-.24 4 4 0 0 0 -.75-.05h-1z"/></g></svg>