<svg width="14" height="14" viewBox="0 0 14 14" fill="none" xmlns="http://www.w3.org/2000/svg">
<path d="M11.6973 0.955078C11.6973 0.938151 11.6973 0.929688 11.6973 0.929688C11.6973 0.845052 11.7227 0.777344 11.7734 0.726562C11.8411 0.658854 11.9173 0.625 12.002 0.625H13.1953C13.3984 0.625 13.5 0.726562 13.5 0.929688V6.00781C13.5 6.09245 13.4661 6.16862 13.3984 6.23633C13.3477 6.28711 13.2799 6.3125 13.1953 6.3125H8.11719C8.03255 6.3125 7.95638 6.28711 7.88867 6.23633C7.83789 6.16862 7.8125 6.09245 7.8125 6.00781V4.81445C7.8125 4.72982 7.83789 4.66211 7.88867 4.61133C7.95638 4.54362 8.03255 4.50977 8.11719 4.50977L10.707 4.63672C10.3346 4.09505 9.78451 3.62956 9.05664 3.24023C8.3457 2.85091 7.66016 2.65625 7 2.65625C6.01823 2.65625 5.10417 2.99479 4.25781 3.67188C3.41146 4.33203 2.87826 5.13607 2.6582 6.08398C2.62435 6.23633 2.52279 6.3125 2.35352 6.3125H1.10938C1.02474 6.3125 0.948568 6.28711 0.880859 6.23633C0.830078 6.16862 0.804688 6.09245 0.804688 6.00781C0.804688 5.99089 0.804688 5.97396 0.804688 5.95703C1.09245 4.48438 1.81185 3.26562 2.96289 2.30078C4.13086 1.31901 5.47656 0.828125 7 0.828125C7.52474 0.828125 8.0918 0.929688 8.70117 1.13281C9.32747 1.31901 9.91146 1.58984 10.4531 1.94531C11.0117 2.28385 11.4603 2.64779 11.7988 3.03711L11.6973 0.955078ZM7 11.5938C7.96484 11.5938 8.87044 11.2637 9.7168 10.6035C10.5632 9.92643 11.1048 9.11393 11.3418 8.16602C11.3757 8.01367 11.4772 7.9375 11.6465 7.9375H12.8906C12.9753 7.9375 13.043 7.97135 13.0938 8.03906C13.1615 8.08984 13.1953 8.15755 13.1953 8.24219C13.1953 8.25911 13.1868 8.27604 13.1699 8.29297C12.8991 9.76562 12.1797 10.9928 11.0117 11.9746C9.86068 12.9395 8.52344 13.4219 7 13.4219C6.1875 13.4219 5.31576 13.2018 4.38477 12.7617C3.45378 12.3385 2.72591 11.8223 2.20117 11.2129L2.30273 13.2949C2.30273 13.3118 2.30273 13.3203 2.30273 13.3203C2.30273 13.4049 2.26888 13.4727 2.20117 13.5234C2.15039 13.5911 2.08268 13.625 1.99805 13.625H0.804688C0.601562 13.625 0.5 13.5234 0.5 13.3203V8.24219C0.5 8.15755 0.525391 8.08984 0.576172 8.03906C0.64388 7.97135 0.720052 7.9375 0.804688 7.9375H5.88281C5.96745 7.9375 6.03516 7.97135 6.08594 8.03906C6.15365 8.08984 6.1875 8.15755 6.1875 8.24219V9.43555C6.1875 9.52018 6.15365 9.59635 6.08594 9.66406C6.03516 9.71484 5.96745 9.74023 5.88281 9.74023L3.29297 9.61328C3.64844 10.1549 4.1901 10.6204 4.91797 11.0098C5.64583 11.3991 6.33984 11.5938 7 11.5938Z" fill="white"/>
</svg>
