<svg viewBox="0 0 121.5 36" xmlns="http://www.w3.org/2000/svg" xmlns:xlink="http://www.w3.org/1999/xlink"><linearGradient id="a" gradientTransform="matrix(1 0 0 -1 0 187)" gradientUnits="userSpaceOnUse" x1="19.62" x2="4.52" y1="179.16" y2="164.06"><stop offset="0" stop-color="#00a0ff"/><stop offset=".01" stop-color="#00a1ff"/><stop offset=".26" stop-color="#00beff"/><stop offset=".51" stop-color="#00d2ff"/><stop offset=".76" stop-color="#00dfff"/><stop offset="1" stop-color="#00e3ff"/></linearGradient><linearGradient id="b" gradientTransform="matrix(1 0 0 -1 0 187)" gradientUnits="userSpaceOnUse" x1="30.45" x2="8.67" y1="169" y2="169"><stop offset="0" stop-color="#ffe000"/><stop offset=".41" stop-color="#ffbd00"/><stop offset=".78" stop-color="#ffa500"/><stop offset="1" stop-color="#ff9c00"/></linearGradient><linearGradient id="c" gradientTransform="matrix(1 0 0 -1 0 187)" gradientUnits="userSpaceOnUse" x1="22.34" x2="1.86" y1="166.93" y2="146.45"><stop offset="0" stop-color="#ff3a44"/><stop offset="1" stop-color="#c31162"/></linearGradient><linearGradient id="d" gradientTransform="matrix(1 0 0 -1 0 187)" gradientUnits="userSpaceOnUse" x1="6.57" x2="15.71" y1="186.84" y2="177.7"><stop offset="0" stop-color="#32a071"/><stop offset=".07" stop-color="#2da771"/><stop offset=".48" stop-color="#15cf74"/><stop offset=".8" stop-color="#06e775"/><stop offset="1" stop-color="#00f076"/></linearGradient><path d="m9.39 6.78a1.8 1.8 0 0 0 -.39 1.22v20a1.8 1.8 0 0 0 .42 1.26l.07.07 11.12-11.2v-.26l-11.15-11.15z" fill="url(#a)"/><path d="m24.33 21.85-3.72-3.72v-.26l3.72-3.72h.08l4.4 2.5c1.26.72 1.26 1.88 0 2.6l-4.4 2.5z" fill="url(#b)"/><path d="m24.41 21.8-3.8-3.8-11.22 11.22a1.46 1.46 0 0 0 1.87.06z" fill="url(#c)"/><path d="m24.41 14.2-13.15-7.47a1.46 1.46 0 0 0 -1.87.05l11.22 11.22z" fill="url(#d)"/><path d="m24.33 21.72-13.07 7.42a1.5 1.5 0 0 1 -1.8 0l-.07.07.07.07a1.5 1.5 0 0 0 1.8 0l13.15-7.48z" opacity=".2"/><path d="m9.39 29.09a1.8 1.8 0 0 1 -.39-1.27v.18a1.8 1.8 0 0 0 .42 1.26l.07-.07z" opacity=".12"/><path d="m28.81 19.17-4.49 2.55.08.08 4.4-2.5a1.58 1.58 0 0 0 .94-1.3 1.68 1.68 0 0 1 -.93 1.17z" opacity=".12"/><path d="m11.26 6.86 17.55 10a1.67 1.67 0 0 1 .95 1.14 1.58 1.58 0 0 0 -.94-1.3l-17.55-10c-1.27-.7-2.27-.09-2.27 1.3v.13c0-1.39 1-1.98 2.26-1.27z" fill="#fff" opacity=".25"/><g fill="#333"><path d="m117 0h-112.5a4.51 4.51 0 0 0 -4.5 4.5v27a4.51 4.51 0 0 0 4.5 4.5h112.5a4.51 4.51 0 0 0 4.5-4.5v-27a4.51 4.51 0 0 0 -4.5-4.5zm3.78 31.5a3.78 3.78 0 0 1 -3.78 3.78h-112.5a3.78 3.78 0 0 1 -3.78-3.78v-27a3.78 3.78 0 0 1 3.78-3.78h112.5a3.78 3.78 0 0 1 3.78 3.78z"/><path d="m52.94 19.58a3.83 3.83 0 1 0 3.84 3.83 3.77 3.77 0 0 0 -3.84-3.83zm0 6.15a2.33 2.33 0 1 1 2.16-2.33 2.21 2.21 0 0 1 -2.16 2.32z"/><path d="m43 20.75v1.62h3.89a3.38 3.38 0 0 1 -.88 2 4 4 0 0 1 -3 1.19 4.32 4.32 0 0 1 -.01-8.56 4.14 4.14 0 0 1 2.93 1.16l1.07-1.16a5.66 5.66 0 0 0 -4-1.66 5.95 5.95 0 1 0 0 11.89 5.44 5.44 0 0 0 4.15-1.67 5.37 5.37 0 0 0 1.41-3.8 5.3 5.3 0 0 0 -.09-1z"/><path d="m61.32 19.58a3.83 3.83 0 1 0 3.84 3.83 3.77 3.77 0 0 0 -3.84-3.83zm0 6.15a2.33 2.33 0 1 1 2.16-2.32 2.21 2.21 0 0 1 -2.16 2.31z"/><path d="m102 19.56a3.15 3.15 0 0 0 -3 1.72l1.49.62a1.59 1.59 0 0 1 1.53-.83 1.62 1.62 0 0 1 1.77 1.45v.12a3.71 3.71 0 0 0 -1.75-.43c-1.61 0-3.24.88-3.24 2.53a2.6 2.6 0 0 0 2.79 2.48 2.37 2.37 0 0 0 2.14-1.1h.06v.88h1.62v-4.33c.05-2-1.41-3.11-3.41-3.11zm-.2 6.17c-.55 0-1.32-.27-1.32-1 0-.87 1-1.2 1.78-1.2a3 3 0 0 1 1.53.38 2 2 0 0 1 -1.95 1.81z"/><path d="m91.63 15.75h-4v11.25h1.68v-4.26h2.35a3.5 3.5 0 1 0 0-7zm0 5.42h-2.35v-3.86h2.39a1.93 1.93 0 1 1 0 3.86z"/><path d="m83.75 22a3.56 3.56 0 0 0 -3.28-2.44 3.64 3.64 0 0 0 -3.61 3.83 3.75 3.75 0 0 0 3.8 3.83 3.81 3.81 0 0 0 3.19-1.7l-1.31-.87a2.19 2.19 0 0 1 -1.89 1.06 2 2 0 0 1 -1.86-1.16l5.12-2.12zm-5.22 1.28a2.1 2.1 0 0 1 2-2.23 1.48 1.48 0 0 1 1.42.81z"/><path d="m96.24 15.75h1.68v11.25h-1.68z"/><path d="m74.37 15.75h1.68v11.25h-1.68z"/><path d="m71.61 20.43h-.06a2.65 2.65 0 0 0 -2-.85 3.83 3.83 0 0 0 0 7.65 2.61 2.61 0 0 0 2-.87h.06v.55c0 1.46-.78 2.25-2 2.25a2.12 2.12 0 0 1 -1.93-1.36l-1.46.61a3.65 3.65 0 0 0 3.39 2.26c2 0 3.64-1.16 3.64-4v-6.86h-1.6zm-1.93 5.29a2.33 2.33 0 0 1 0-4.64 2.16 2.16 0 0 1 2 2.33 2.14 2.14 0 0 1 -2 2.31z"/><path d="m109.44 24.68h-.05l-2-4.88h-1.81l3 6.82-1.71 3.79h1.75l4.62-10.61h-1.87z"/><text font-family="ArialMT, Arial" font-size="9" transform="translate(37.5 13.13)">За <tspan letter-spacing="-.01em" x="10.44" y="0">в</tspan> <tspan x="15.12" y="0">ан</tspan> <tspan letter-spacing="-.01em" x="25.1" y="0">т</tspan> <tspan letter-spacing="0em" x="29.12" y="0">ажити в</tspan></text></g></svg>